<?xml version="1.0" encoding="utf-8"?>
<!-- Generator: Adobe Illustrator 17.0.0, SVG Export Plug-In . SVG Version: 6.00 Build 0)  -->
<!DOCTYPE svg PUBLIC "-//W3C//DTD SVG 1.1//EN" "http://www.w3.org/Graphics/SVG/1.1/DTD/svg11.dtd">
<svg version="1.1" id="Layer_1" xmlns="http://www.w3.org/2000/svg" xmlns:xlink="http://www.w3.org/1999/xlink" x="0px" y="0px"
	 width="800px" height="400px" viewBox="0 0 800 400" enable-background="new 0 0 800 400" xml:space="preserve">
<title>logo-coinbase</title>
<g>
	<path fill="#0061FC" d="M763.992,249.573c0,0-3.101-7.57-5.832-11.747c0,0-4.348-7.25-5.8-9.049c0,0-6.903-9.28-9.628-11.079
		c0,0-4.988-4.232-6.847-4.817c-1.854-0.58-0.292-0.723,0.755-0.723c0,0,7.195-1.363,9.513-2.93c0,0,7.366-3.421,12.006-9.572
		c0,0,3.366-3.509,4.932-10.991c0,0,1.914-8.613-2.786-20.448c0,0-3.482-7.195-8.933-10.787c0,0-5.336-3.885-10.152-4.756
		c0,0-8.872-1.159-9.976-1.159c-1.103,0-58.47,0-58.47,0v102.086c0,0,0,8.006,6.726,10.671c0,0,6.147,1.622,9.744-0.811
		c0,0,4.873-2.086,5.567-7.311v-40.719v-0.639l12.123,0.408c0,0,7.195,0.524,11.367,5.104c0,0,4.581,3.945,11.079,14.964
		c0,0,10.732,17.866,11.427,19.085c0,0,3.217,5.308,5.048,6.962c0,0,1.914,2.758,6.874,3.491c0,0,6.917,0.904,9.962-2.925
		c0,0,2.392-2.712,2.712-4.422C765.415,257.459,766.022,254.065,763.992,249.573z M721.969,198.498h-26.738v-30.044l34.541,1.029
		c3.435,0.306,6.611,4.089,6.611,4.089c2.522,1.437,3.57,6.481,3.57,6.481s0.376,3.482,0,7.019s-3.945,6.787-3.945,6.787
		C731.482,198.613,721.969,198.498,721.969,198.498z"/>
</g>
<g>
	<path fill="#0061FC" d="M662.392,251.335l-10.263-26.53l-25.32-63.068c0,0-4.705-10.306-13.217-10.393l-6.842,0.213
		c0,0-6.856,0.863-10.565,10.18l-30.623,76.979l-3.366,8.84c0,0-1.428,3.366-1.368,7.585c0,0-0.056,3.847,3.449,7.098
		c0,0,2.397,1.966,4.678,2.48c0,0,3.235,0.557,5.716,0c0,0,2.907-0.728,4.663-3.462c1.752-2.735,9.921-24.504,9.921-24.504
		l44.479,0.084l9.549,23.378c0,0,1.654,3.564,5.632,4.293c0,0,5.132,1.455,9.364-1.752c0,0,2.694-1.794,4.107-5.605
		C662.392,257.153,663.073,254.928,662.392,251.335z M595.077,219.989h-0.343l16.425-44.817l16.507,44.817H595.077z"/>
</g>
<g>
	<path fill="#EC1C24" d="M547.557,218.672c0,0-2.198-7.125-10.31-12.132c0,0,13.518-12.132,7.436-37.16
		c0,0-4.737-14.037-20.281-17.889H478.11v113.24h52.481c0,0,12.406-3.894,16.967-14.291
		C547.557,250.44,554.993,232.923,547.557,218.672z M518.473,169.191c15.757,1.284,12.41,17.712,12.41,17.712
		c-1.353,10.653-12.599,14.57-12.599,14.57l-17.565,8.464l0.084-40.748L518.473,169.191L518.473,169.191L518.473,169.191z
		 M535.444,236.385c-1.071,11.297-14.588,12.419-14.588,12.419h-19.943l-0.195-38.866l23.707,6.597
		C539.524,218.844,535.444,236.385,535.444,236.385z"/>
</g>
<g>
	<path fill="#EC1C24" d="M466.693,249.638c0,0-3.101-7.57-5.832-11.747c0,0-4.348-7.25-5.8-9.049c0,0-6.903-9.28-9.628-11.079
		c0,0-4.988-4.232-6.847-4.817c-1.854-0.58-0.292-0.723,0.756-0.723c0,0,7.195-1.363,9.513-2.93c0,0,7.366-3.421,12.007-9.572
		c0,0,3.366-3.509,4.932-10.991c0,0,1.914-8.613-2.786-20.448c0,0-3.482-7.195-8.933-10.787c0,0-5.336-3.885-10.152-4.756
		c0,0-8.872-1.159-9.976-1.159c-1.103,0-58.47,0-58.47,0v102.086c0,0,0,8.006,6.726,10.671c0,0,6.147,1.622,9.744-0.811
		c0,0,4.873-2.086,5.567-7.311v-40.719v-0.639l12.123,0.408c0,0,7.195,0.524,11.366,5.104c0,0,4.585,3.945,11.079,14.964
		c0,0,10.732,17.866,11.427,19.085c0,0,3.217,5.308,5.048,6.962c0,0,1.914,2.758,6.874,3.491c0,0,6.917,0.904,9.962-2.925
		c0,0,2.392-2.712,2.712-4.422C468.116,257.529,468.723,254.135,466.693,249.638z M424.67,198.568h-26.738v-30.044l34.541,1.029
		c3.435,0.306,6.611,4.089,6.611,4.089c2.522,1.437,3.57,6.481,3.57,6.481s0.376,3.482,0,7.019s-3.945,6.787-3.945,6.787
		C434.182,198.683,424.67,198.568,424.67,198.568z"/>
</g>
<g>
	<path fill="#EC1C24" d="M363.794,249.638c0,0-3.101-7.57-5.832-11.747c0,0-4.348-7.25-5.8-9.049c0,0-6.903-9.28-9.628-11.079
		c0,0-4.988-4.232-6.847-4.817c-1.854-0.58-0.292-0.723,0.756-0.723c0,0,7.195-1.363,9.513-2.93c0,0,7.366-3.421,12.007-9.572
		c0,0,3.366-3.509,4.932-10.991c0,0,1.914-8.613-2.786-20.448c0,0-3.482-7.195-8.933-10.787c0,0-5.336-3.885-10.152-4.756
		c0,0-8.872-1.159-9.976-1.159c-1.103,0-58.47,0-58.47,0v102.086c0,0,0,8.006,6.726,10.671c0,0,6.147,1.622,9.744-0.811
		c0,0,4.873-2.086,5.567-7.311v-40.719v-0.639l12.123,0.408c0,0,7.195,0.524,11.366,5.104c0,0,4.585,3.945,11.079,14.964
		c0,0,10.732,17.866,11.427,19.085c0,0,3.217,5.308,5.048,6.962c0,0,1.914,2.758,6.874,3.491c0,0,6.917,0.904,9.962-2.925
		c0,0,2.392-2.712,2.712-4.422C365.217,257.529,365.824,254.135,363.794,249.638z M321.772,198.568h-26.738v-30.044l34.54,1.029
		c3.435,0.306,6.611,4.089,6.611,4.089c2.522,1.437,3.57,6.481,3.57,6.481s0.376,3.482,0,7.019s-3.945,6.787-3.945,6.787
		C331.284,198.683,321.772,198.568,321.772,198.568z"/>
</g>
<g id="U">
	<g>
		<g>
			<g>
				<path fill="#EC1C24" d="M187.856,260.324c4.497,0,4.497-6.972,0-6.972C183.359,253.353,183.361,260.324,187.856,260.324
					L187.856,260.324z"/>
			</g>
		</g>
		<g>
			<g>
				<path fill="#EC1C24" d="M197.309,268.598c4.497,0,4.497-6.972,0-6.972C192.813,261.631,192.813,268.598,197.309,268.598
					L197.309,268.598z"/>
			</g>
		</g>
		<g>
			<path fill="#0061FC" d="M197.777,159.906h-16.763v64.315c0,0-0.148,24.717,21.611,36.562c0,0,11.423,5.252,20.972,4.121
				c0,0,12.701,0,22.839-6.898c0,0,9.749-6.898,12.896-16.582c0,0,2.952-6.898,3.643-14.932v-66.587h-16.638l0.195,57.932
				c0,0-0.245,15.603-7.481,22.089c0,0-6.647,7.107-16.244,6.49c0,0-14.769,1.854-21.269-11.432c0,0-2.952-6.026-3.249-12.206
				L197.777,159.906z"/>
			<path fill="#0061FC" d="M197.643,159.72c0,4.673-3.722,8.455-8.317,8.455l0,0c-4.594,0-8.317-3.788-8.317-8.455l0,0
				c0-4.673,3.722-8.455,8.317-8.455l0,0C193.92,151.261,197.643,155.047,197.643,159.72L197.643,159.72z"/>
			<path fill="#0061FC" d="M262.977,159.539c0,4.673-3.722,8.455-8.317,8.455l0,0c-4.594,0-8.317-3.788-8.317-8.455l0,0
				c0-4.673,3.722-8.455,8.317-8.455l0,0C259.255,151.08,262.977,154.867,262.977,159.539L262.977,159.539z"/>
		</g>
	</g>
</g>
<g id="D">
	<g>
		<path fill="#0061FC" d="M73.801,131.897h34.971c9.096,0,16.901,0.843,23.405,2.535c6.509,1.692,12.41,4.858,17.712,9.504
			c13.795,11.826,20.694,29.808,20.694,53.945c0,7.964-0.695,15.238-2.077,21.811c-1.386,6.577-3.523,12.508-6.416,17.787
			c-2.893,5.281-6.597,10.004-11.117,14.167c-3.555,3.199-7.44,5.762-11.659,7.696c-4.218,1.933-8.752,3.292-13.601,4.075
			c-4.849,0.784-10.319,1.178-16.401,1.178H74.343c-4.882,0-8.557-0.737-11.024-2.216c-2.471-1.479-4.084-3.56-4.835-6.244
			c-0.756-2.684-1.131-6.17-1.131-10.453v-97.312c0-5.795,1.293-9.985,3.885-12.581C63.83,133.195,68.02,131.897,73.801,131.897z
			 M84.194,153.166v90.058h20.332c4.459,0,7.955-0.12,10.481-0.362c2.531-0.241,5.15-0.843,7.862-1.808
			c2.712-0.965,5.062-2.322,7.051-4.075c8.974-7.603,13.467-20.694,13.467-39.283c0-13.091-1.975-22.9-5.92-29.418
			c-3.945-6.518-8.813-10.666-14.593-12.447c-5.786-1.78-12.771-2.671-20.967-2.671L84.194,153.166L84.194,153.166L84.194,153.166z"
			/>
		<circle fill="#6696E2" cx="91.04" cy="198.377" r="55.503"/>
		<g>
			<path fill="none" d="M63.663,246.681c-0.965-0.557-2.243-1.307-3.161-1.937c-1.461-1.006-3.366-2.401-4.751-3.509
				c-1.892-1.516-4.167-3.824-5.845-5.567c-1.103-1.149-2.467-2.786-3.375-4.098c-0.839-1.21-1.984-2.814-2.768-4.065
				c-0.677-1.08-1.497-2.573-2.091-3.699c-0.673-1.275-1.465-3.036-2.016-4.366c-0.496-1.201-1.038-2.846-1.484-4.065
				c-0.496-1.353-0.988-3.226-1.271-4.64c-0.519-2.619-1.08-6.147-1.266-8.813c-0.172-2.438-0.213-5.725,0.084-8.154
				c0.176-1.45,0.31-3.403,0.612-4.83c0.274-1.293,0.589-3.032,0.918-4.311c0.362-1.391,0.863-3.245,1.386-4.581
				c0.473-1.201,1.057-2.823,1.581-4.005c0.584-1.307,1.423-3.027,2.114-4.284c0.607-1.108,1.47-2.558,2.165-3.616
				c0.802-1.214,1.896-2.828,2.828-3.949c1.552-1.882,3.695-4.343,5.47-6.017c1.062-1.001,2.54-2.277,3.672-3.199
				c0.886-0.714,2.1-1.622,3.045-2.257c1.275-0.848,3.004-1.928,4.32-2.703c0.839-0.492,1.984-1.094,2.86-1.507
				c0.858-0.403,2.003-0.936,2.875-1.307c0.728-0.306,1.715-0.677,2.452-0.956c1.205-0.459,2.85-0.965,4.094-1.307
				c0.603-0.167,1.405-0.385,2.016-0.524c1.154-0.26,2.703-0.58,3.866-0.788c0.867-0.158,2.916-0.435,4.501-0.557
				c1.59-0.12,5.822-0.445,11.251,0.218c2.671,0.329,4.556,0.746,4.576,0.75c1.122,0.25,2.614,0.612,3.727,0.909
				c0.741,0.199,1.715,0.505,2.443,0.746c0.852,0.283,1.975,0.686,2.809,1.015c0.858,0.338,1.989,0.829,2.832,1.205
				c1.326,0.589,3.027,1.502,4.298,2.202c-7.83-4.45-17.203-6.388-27.281-5.034c10.078-1.353,19.452,0.584,27.281,5.034
				c1.126,0,2.257,1.339,3.194,1.961c0.95,0.63,2.179,1.53,3.101,2.207c1.261,0.922,2.846,2.281,3.987,3.347
				c1.794,1.674,4.001,4.107,5.591,5.981c1.006,1.178,2.193,2.875,3.05,4.162c0.807,1.219,1.854,2.865,2.508,4.167
				c1.149,2.299,2.554,5.437,3.5,7.83c0.533,1.353,1.057,3.226,1.423,4.635c0.367,1.405,0.793,3.292,1.006,4.724
				c0.399,2.666,0.659,6.262,0.77,8.956c0.061,1.484-0.065,3.462-0.19,4.941c-0.139,1.627-0.371,3.797-0.714,5.396
				c-0.547,2.564-1.405,5.966-2.248,8.451c-0.455,1.344-1.131,3.12-1.767,4.39c-0.571,1.145-1.289,2.694-1.905,3.815
				c-0.686,1.237-1.669,2.855-2.447,4.037c-0.802,1.219-1.928,2.818-2.87,3.931c-1.576,1.854-3.759,4.264-5.517,5.947
				c-1.057,1.011-2.569,2.257-3.709,3.167c-0.886,0.705-2.114,1.581-3.05,2.22c-2.438,1.665-5.465,3.337-7.2,4.126
				c-0.848,0.39-1.98,0.909-2.841,1.261c-0.779,0.324-1.84,0.709-2.633,1.001c-1.192,0.44-2.818,0.899-4.042,1.242
				c-1.159,0.329-2.735,0.682-3.922,0.904c-2.114,0.399-2.768,0.473-4.511,0.682c-1.071,0.125-3.045,0.26-3.969,0.288
				c-1.316,0.037-2.558,0.074-4.83-0.037c-1.914-0.093-4.932-0.357-8.437-1.085c-4.237-0.881-7.338-2.049-8.507-2.49
				c-1.006-0.38-2.331-0.927-3.305-1.391C66.653,248.266,64.914,247.409,63.663,246.681z"/>
			<g>
				<path fill="#4E71A8" d="M70.426,249.55c1.261,0.329,2.948,0.779,4.223,1.052l0.603,0.041c1.312,0.056,1.475,0.074,2.007,0.125
					c0.07,0.014,0.139,0.027,0.204,0.041c0.129,0.023,0.26,0.052,0.39,0.074c0.176,0.032,0.357,0.065,0.537,0.097
					c0.213,0.037,0.426,0.074,0.644,0.111c0.236,0.037,0.473,0.074,0.709,0.111c0.245,0.037,0.492,0.074,0.737,0.107
					c0.241,0.032,0.478,0.065,0.718,0.093c0.222,0.027,0.44,0.05,0.663,0.079c2.007,0.199,6.226,0.26,6.402,0.26
					c0.89,0.014,1.78,0.009,2.68-0.018c-19.414-2.42-24.332-11.543-27.266-16.999c-1.298-4.13-1.641-8.469-2.739-12.642
					c-1.122-2.522-2.086-4.858-2.948-7.255c-0.89-2.485-1.674-5.034-2.332-7.635c-1.488-1.298-3.462-3.041-4.918-4.377
					c-0.82-5.066-1.947-12.011-5.739-15.261c-0.399-0.046-0.598,0.041-0.793,0.125s-0.385,0.172-0.575,0.26l-0.445,4.409
					c-7.032-5.544-5.897,12.549-5.873,12.739c0.333,2.656,1.043,5.539,1.275,6.49c-0.186-0.347-0.492-0.931-1.219-2.512
					c0.301,3.954,0.301,3.954,0.797,5.956c0.014,0.041,0.027,0.084,0.041,0.125c0.037,0.111,0.074,0.227,0.116,0.338
					c0.056,0.167,0.116,0.333,0.176,0.501c0.074,0.209,0.148,0.412,0.222,0.616c0.084,0.227,0.172,0.459,0.26,0.686
					c0.093,0.236,0.186,0.469,0.278,0.705c0.093,0.227,0.186,0.449,0.278,0.677c0.084,0.199,0.172,0.403,0.26,0.603
					c0.668,1.595,1.284,3.208,1.998,4.78l1.971,3.462c3.013,4.492,3.194,4.76,5.382,7.306c3.564,3.806,3.856,4.116,6.606,6.425
					l2.318,1.808c1.043,0.756,1.043,0.756,1.812,1.28C63.232,246.565,66.717,248.29,70.426,249.55"/>
				<path fill="#4E71A8" d="M62.23,150.955c-1.4,0.904-6.982,7.408-7.343,7.904c-0.663,0.918-0.403,1.989,0.12,2.068
					c0.158,0.023,0.324-0.027,0.941-0.231c0.464-2.911,4.051-5.6,4.089-5.618c0.061-0.027,6.388-2.573,8.108-0.251
					c0.89,1.201,0.89,1.201,2.073,7.468l0,0c0,0.005,0,0.009-0.005,0.009c0,0.018-0.005,0.027-0.005,0.037
					c-0.005,0.018-0.009,0.041-0.014,0.061c-0.009,0.032-0.018,0.065-0.027,0.097c-0.009,0.052-0.023,0.102-0.032,0.148
					c-0.018,0.07-0.032,0.139-0.052,0.209c-0.023,0.093-0.041,0.186-0.065,0.278c-1.683,6.564-1.901,7.408-6.768,4.613l-1.586-2.053
					l-2.49-0.097c-0.167,0.51-0.324,1.024-0.482,1.543c0.431,0.89,0.988,2.091,1.455,2.962c1.423,1.813,5.062,3.987,8.196,3.356
					c4.909-0.988,7.968-3.806,11.84-7.379c2.23-3.315,2.082-4.191,1.859-5.521c0.032,0.041,0.079,0.097,0.116,0.139
					c0.088-0.154,0.129-0.39,0.154-0.561c0.723-4.964,1.126-5.651,3.045-8.928c-0.408,4.886-0.445,5.424-0.557,8.163
					c0.969-0.032,1.942-0.061,2.911-0.074c0.537-9.017,0.537-9.017,1.228-11.274c0.353,0.005,0.686,0.255,1.047,0.079
					c0.125-1.636-0.89-3.022-1.02-4.603c-0.288-0.218-0.514-0.394-1.321-0.514l-1.154,0.084c-1.849,0.176-1.882,0.181-2.855,0.31
					c-5.238,0.802-8.687,1.724-13.661,3.657c-3.412,1.516-4.223,1.878-7.658,3.866C62.29,150.912,62.253,150.935,62.23,150.955"/>
				<path fill="#4E71A8" d="M104.837,252.123c-1.645,0.283-3.852,0.598-5.517,0.728c-1.307-0.023-3.05-0.065-4.353-0.204
					l-1.738-0.278l-2.281-0.659c0.89,0.793,2.596,2.118,3.978,2.063l0.668-0.052c1.849-0.176,1.882-0.181,2.855-0.31
					c5.011-0.765,7.492-1.461,11.502-2.823C108.43,251.09,106.403,251.79,104.837,252.123"/>
				<path fill="#4E71A8" d="M140.884,191.692c-0.005,1.289-0.046,2.573-0.134,3.852c0.575-1.971,1.237-4.631,1.631-6.643
					c1.196-3.94-0.673-7.741-0.519-11.631c-0.265-0.886-0.269-1.835-0.654-2.694l-1.344-2.642c-2.832-4.765-2.943-4.951-4.96-7.574
					c-3.444-4.103-3.648-4.348-6.194-6.736c-3.287-2.828-5.456-4.696-10.281-7.515C131.983,157.811,140.916,173.029,140.884,191.692
					"/>
			</g>
			<g>
				<path fill="#4E71A8" d="M53.529,238.546c1.743,2.397,3.167,3.468,4.538,4.501l-2.318-1.808
					c-3.806-3.371-4.205-3.722-6.606-6.425c-3.389-4.2-3.593-4.45-5.382-7.306l-1.971-3.462l1.043,1.826
					c2.331,3.468,2.378,3.532,3.94,5.331c0.945,1.015,2.197,2.369,3.185,3.337c1.033,1.173,2.397,2.753,3.482,3.88
					C53.468,238.457,53.501,238.508,53.529,238.546"/>
				<path fill="#4E71A8" d="M81.969,146.569c-1.826,0.431-4.255,1.024-6.068,1.516c1.348-0.728,1.348-0.728,5.924-2.114
					c-0.023-0.014-4.162-0.473-7.871,1.563c-0.969,0.167-2.263,0.39-3.231,0.566c-2.684,0.566-5.73,1.205-8.405,2.796
					c3.482-1.966,4.107-2.322,7.662-3.866c4.488-1.733,7.834-2.777,13.661-3.657c1.91-0.231,1.91-0.231,2.855-0.31l1.154-0.084
					c0.899,1.145,2.411,1.261,3.491,2.095l0,0c-2.248-0.186-3.509-0.163-4.06-0.134c1.353,0.046,2.707,0.074,4.06,0.134l0,0
					l-1.461,0.134C87.063,145.479,84.486,145.939,81.969,146.569"/>
				<path fill="#0E8D64" d="M98.045,238.949c-0.32-0.25-0.589-0.478-0.7-0.575c0.079,0.061,0.357,0.278,0.737,0.603
					C98.072,238.967,98.054,238.958,98.045,238.949"/>
				<path fill="#4E71A8" d="M144.291,207.388c-0.505,2.202-1.233,5.132-1.882,7.297c-2.044,4.975-2.257,5.494-4.241,9.053
					c-2.73,4.144-3.296,5.007-6.801,9.16c-0.886,1.507-1.845,2.943-2.879,4.298c-6.398,7.084-8.326,9.221-18.534,13.397
					c-3.607,1.224-6.184,2.021-11.502,2.823c-1.91,0.231-1.91,0.231-2.855,0.31l-0.668,0.052c0.167-0.037,0.39-0.084,0.557-0.12
					c1.53-2.35,4.094-4.015,4.668-7c0.158-0.816,0.807-5.007-1.873-7.51c1.586,1.108,1.771,1.149,2.467,1.298
					c0.116-0.088,0.269-0.209,0.385-0.297c0.129-2.8-4.737-3.078-3.505-6.203c-0.756-1.266-0.816-1.368-0.353-2.592
					c0.95-2.513-1.822-5.1-3.996-6.049c-2.939-1.289-5.503,0.992-8.317,0.881c-2.322-0.093-4.571-0.811-6.903-0.825
					c-0.12-0.005-0.172-0.009-0.222-0.009c-0.139-0.009-0.283-0.018-0.422-0.032c-0.204-0.014-0.408-0.032-0.612-0.046
					c-0.245-0.018-0.487-0.037-0.728-0.061c-0.26-0.023-0.519-0.041-0.774-0.065c-0.25-0.023-0.501-0.041-0.746-0.065
					c-0.218-0.018-0.431-0.041-0.648-0.061c-0.163-0.014-0.32-0.032-0.482-0.046c-4.005-0.673-6.583-3.351-6.602-3.375
					c-0.056-0.074-6.133-12.512-6.253-13.661c-1.368-12.934,5.605-25.598,8.159-27.438c2.216-1.595,4.975-2.286,6.972-4.237
					c0.445-1.441,0.784-2.744,1.14-4.019c1.205-1.173,2.809-2.739,3.996-3.931c6.504-3.254,7.338-3.672,10.027-3.741
					c2.698,0.426,2.698,0.426,3.958,2.411c0.644,6.17,10.463,4.658,16.257,3.213c0.037-0.009,3.949-0.843,8.279,0.385
					c0.209,0.639,0.482,1.493,0.691,2.132l0.852,1.928c0.956,1.02,2.239,2.374,3.18,3.407c3.036,4.223,5.901,8.215,9.017,14.31
					l1.771,2.726c0.709,0.899,1.669,2.091,2.345,3.013c0.533,1.242,1.271,2.893,1.747,4.162c0.863,0.931,1.994,2.202,2.782,3.199
					l1.149-2.179l0.82-0.922l0.802-0.44c0.005,0.236,0.005,0.473,0.005,0.714C144.509,204.236,144.434,205.827,144.291,207.388"/>
				<path fill="#4E71A8" d="M142.464,180.034c0.459,1.126,0.876,2.267,1.261,3.426c0.644,6.486,0.644,6.486,0.376,9.619
					c-0.324,0.686-0.723,1.613-1.09,2.277l-0.037,2.456c-1.395,3.468-1.395,3.468-3.482,4.037
					c-0.139-7.746-3.301-14.403-9.397-19.78c-2.943-2.596-12.526-12.127-9.939-13.249c0.589,0.116,1.038,0.668,1.706,0.557
					c-0.274-1.479,2.392-0.482,2.42-0.464c0.542,0.333,0.709,0.909,0.774,1.126c5.396,2.146,5.396,2.146,5.623,2.063
					c0.686-1.78,3.022,1.428,3.041,1.47c0.12,0.283,0.107,0.464,0.088,0.718c1.989,0.663,4.135,0.654,6.096,1.423
					c0.551,0.218,0.918,1.033,1.312,1.479C141.653,178.128,142.071,179.079,142.464,180.034"/>
				<path fill="#4E71A8" d="M89.005,157.94c-0.116,0.561-0.265,1.011-0.32,1.145c-0.041,0.093-0.097,0.218-0.139,0.31
					c-0.129,0.278-0.492,0.32-0.616,0.603c-0.445,0.974-0.612,2.039-1.033,3.018c-0.116,0.265-0.469,1.071-0.616,1.201
					c-0.154,0.129-0.362,0.005-0.514,0.116c-0.403,0.292-0.709,0.691-1.126,0.96c-0.186,0.12-0.435,0.283-0.626,0.399
					c-0.236,0.139-0.426,0.241-0.718,0.283c-0.023,0.005-2.517-0.542-2.689-0.927c-0.19-0.426,1.688-7.56,1.711-7.626
					c0.041-0.116,1.257-1.437,1.543-1.307c0.278,0.125,0.032,0.482,0.278,0.616c0.052,0.027,0.052,0.027,0.654-0.093
					c0.236-0.052,0.403,0.204,0.644,0.139c0.19-0.052,0.673-0.301,1.28-0.741c0.195-0.139,0.195-0.139,0.292-0.139
					c0.492,0.12,0.695,0.371,2.021,1.971C89.015,157.89,89.01,157.922,89.005,157.94"/>
				<path fill="#4E71A8" d="M116.226,159.118c0.371,0.445,0.283,0.765,0.25,0.848c-0.088,0.222-0.148,0.371,0.899,1.353
					c-0.741,0.7-1.085,1.752-2.035,2.257c-0.431,0.227-2.558,0.19-2.582,0.186c-0.654-0.041-1.205-0.482-1.869-0.478
					c-1.743,0.014-1.743,0.014-1.994-0.107c-0.945-0.469-1.706-1.776-2.438-2.535l-0.222-0.95c0.111-0.936,0.357-1.09,0.51-1.178
					c0.251-0.154,0.338-0.26,0.376-0.607c0.065-0.58-0.561-0.922-0.519-1.493c0.25-0.195,1.033-0.329,1.043-0.329
					c0.236-0.028,0.39-0.218,0.598-0.297c0.825,0,1.169,0.765,1.78,1.108c0.163,0.088,0.163,0.088,0.793-0.027
					c0.469-0.084,0.473-0.088,0.487-0.274c0.014-0.139,0.027-0.315,0.367-0.25c0.231,0.041,0.445,0.158,0.677,0.209
					c0-0.018,0-0.046,0-0.065c-0.056-0.046-0.056-0.046-0.199-0.158C112.17,156.345,115.238,157.926,116.226,159.118"/>
				<path fill="#0E8D64" d="M117.669,161.218c0.037,0.07,0.014,0.231-0.023,0.347c-0.009-0.005-0.134-0.116-0.265-0.236
					c0.084-0.074,0.134-0.111,0.19-0.134C117.594,161.18,117.64,161.166,117.669,161.218"/>
				<path fill="#4E71A8" d="M92.825,157.541c-0.014,0.464-0.231,0.464-0.412,0.385c-0.663-0.297-1.062-0.931-1.66-1.312
					c-0.018-0.009-0.018-0.009-0.023-0.009s-0.009,0-0.014,0c-0.009,0-0.018,0-0.023,0c-0.009,0-0.023,0-0.032,0
					c-0.014,0-0.027,0-0.041,0c-0.018,0-0.032,0-0.052,0c-0.019,0-0.037,0-0.056,0c-0.023,0-0.041,0-0.065,0
					c-0.018,0-0.037,0-0.056,0c-0.014,0-0.028,0-0.041,0c-0.009,0-0.018,0-0.032,0c-0.009,0-0.014,0-0.023,0
					c-0.005,0-0.009,0-0.014,0h-0.005c0,0,0,0-0.005,0l0,0c-0.25-0.005-0.505-0.009-0.756-0.014l0,0h-0.005
					c-0.005,0-0.009,0-0.014,0c-0.009,0-0.018,0-0.023,0c-0.014,0-0.027,0-0.041,0c-0.018,0-0.041,0-0.061,0
					c-0.027,0-0.056,0-0.088,0c-0.037,0-0.074,0-0.116-0.005c-0.802-0.163-1.386-0.44-1.062-2.424
					c0.014-0.088,0.023-0.213,0.056-0.297l1.747-4.135c0.061-0.134,0.26-0.445,0.505-0.784c0.278,0.44,0.524,0.741,0.843,1.122
					c0.116,0.139,0.116,0.143,0.079,0.222c-0.139,0.329,0.163,0.528,0.236,0.793c0.009,0.037,0.023,0.088,0.032,0.125
					c0.046,0.231,0.046,0.231,0.333,5.077c0.046,0.756,0.199,0.616,0.412,0.426C92.483,156.601,92.863,156.262,92.825,157.541"/>
				<path fill="#4E71A8" d="M118.428,150.11c3.667,2.252,6.092,3.736,10.281,7.515c3.713,3.686,4.015,3.987,6.194,6.736
					c3.167,4.404,3.356,4.668,4.96,7.574l1.344,2.642c-0.014-0.032-1.599-3.194-2.637-4.821c0,0.079,0,0.181,0,0.26
					c-0.695,0.352-4.182-0.741-4.214-0.756c-0.074,0.037-0.167,0.084-0.241,0.116c0.027,0.154,0.023,0.362-0.005,0.514
					c-2.911-1.08-4.975-3.43-7.538-5.034c-5.883-5.605-13.578-10.291-13.643-10.328c-2.796-1.548-3.657-1.84-4.432-1.882
					c-3.296-0.172-3.296-0.172-15.553-6.416c0.741,0.501,0.941,0.644,1.409,1.001c-1.103-0.668-2.132-1.45-3.213-2.161l0,0
					C101.221,143.718,110.598,145.66,118.428,150.11"/>
				<path fill="#384A9E" d="M127.445,165.742c0.005,0.009,0.014,0.018,0.018,0.027c-0.005,0-0.009,0.005-0.009,0.005
					c-0.111-0.056-0.39-0.297-1.733-1.446c0.056,0.032,0.353,0.209,0.858,0.524C127.232,165.482,127.404,165.681,127.445,165.742"/>
				<path fill="#4E71A8" d="M94.898,148.474c0.297,0.347,0.913,1.071,0.654,1.892c-0.269,0.023-0.537,0.046-0.811,0.07
					c-0.455-0.505-0.872-1.043-1.335-1.543c-0.107-0.116-0.213-0.227-0.718-0.663c-0.222-0.566-0.455-1.085-0.682-1.567
					c0.143,0.056,0.612,0.204,0.459-0.154c-0.032-0.074-0.084-0.139-0.107-0.218c0.005-0.005,0.005-0.005,0.009-0.009
					C92.612,146.342,94.225,147.686,94.898,148.474"/>
				<path fill="#4E71A8" d="M103.492,155.251c0.163,0.283,0.408,0.997,0.412,1.373c0,0.097,0.009,0.231-0.009,0.329
					c-0.111,0.607-0.283,1.205-0.38,1.817c-0.245,1.552-0.394,1.516-0.802,1.418c-0.292-0.07-0.589-0.25-0.867-0.431
					c-1.52-1.006-2.118-1.289-3.709-2.044c-0.478-1.02-0.714-1.669-0.723-1.785c-0.009-0.093,0.018-0.218,0.046-0.306
					c0.005-0.009,0.265-0.834,0.376-1.975c2.517,2.447,4.056,3.041,4.581,1.767c0.102-0.245,0.111-0.25,0.209-0.292
					c0.116-0.05,0.199,0.07,0.306,0.052c0.116-0.014,0.19-0.12,0.301-0.134C103.274,155.024,103.358,155.015,103.492,155.251"/>
			</g>
		</g>
		<g>
			<g>
				<g>
					<g>
						<path fill="#EC1C24" d="M101.291,233.891l11.7,16.86c36.154-19.001,41.725-60.436,24.337-83.948
							c-19.577-26.466-51.256-30.419-75.404-13.43c-9.61,6.763-13.976,13.986-17.495,24.323c3.18-8.928,8.775-14.019,16.308-19.586
							c20.712-15.311,50.78-8.192,63.43,9.309C138.575,187.344,137.81,216.113,101.291,233.891z"/>
					</g>
					<polygon fill="#EC1C24" points="56.76,160.054 61.78,165.817 58.211,158.751 					"/>
					<polygon fill="#EC1C24" points="76.67,149.462 78.589,156.855 78.548,148.947 					"/>
					<polygon fill="#EC1C24" points="98.04,149.633 96.529,157.12 99.959,149.99 					"/>
					<polygon fill="#EC1C24" points="116.189,157.342 112.207,163.864 117.868,158.334 					"/>
					<polygon fill="#EC1C24" points="129.531,172.876 122.952,176.766 130.546,174.54 					"/>
					<polygon fill="#EC1C24" points="134.607,193.135 126.972,193.468 134.718,195.081 					"/>
					<polygon fill="#EC1C24" points="128.9,211.649 121.683,209.155 128.288,213.503 					"/>
					<polygon fill="#EC1C24" points="112.166,229.339 107.317,223.433 110.673,230.596 					"/>
				</g>
				<g>
					<path fill="#EC1C24" d="M89.785,201.126c-0.343,0.028-0.682,0.023-1.011-0.018c3.449,4.631,11.511,14.95,11.511,14.95
						s-4.468-11.987-6.643-17.44C92.881,199.995,91.472,200.978,89.785,201.126z"/>
					<path fill="#EC1C24" d="M88.57,201.255c1.951,0.241,3.788-0.537,4.988-1.914c0.714-0.825,1.205-1.864,1.344-3.032
						c0.385-3.115-1.831-5.952-4.946-6.332c-3.115-0.385-5.952,1.831-6.332,4.946c-0.333,2.716,1.312,5.224,3.801,6.072
						C87.791,201.117,88.171,201.21,88.57,201.255z"/>
				</g>
			</g>
		</g>
	</g>
</g>
</svg>
