<?xml version="1.0" encoding="utf-8"?>
<!-- Generator: Adobe Illustrator 17.0.0, SVG Export Plug-In . SVG Version: 6.00 Build 0)  -->
<!DOCTYPE svg PUBLIC "-//W3C//DTD SVG 1.1//EN" "http://www.w3.org/Graphics/SVG/1.1/DTD/svg11.dtd">
<svg version="1.1" id="Layer_1" xmlns="http://www.w3.org/2000/svg" xmlns:xlink="http://www.w3.org/1999/xlink" x="0px" y="0px"
	 width="1200px" height="800px" viewBox="0 0 1200 800" enable-background="new 0 0 1200 800" xml:space="preserve">
<g id="g1107">
	<path id="rect9805" fill="#DBA627" d="M732.127,88C722.349,152.276,667.008,201.58,600,201.58
		c-67.006,0-122.346-49.301-132.127-113.575v179.868c33.815-33.815,80.529-54.73,132.127-54.73s98.312,20.915,132.127,54.73V88z
		 M732.127,267.873c33.815,33.815,54.73,80.528,54.73,132.127s-20.915,98.312-54.73,132.127H912
		C847.724,522.349,798.419,467.008,798.419,400c0-67.006,49.301-122.346,113.576-132.127H732.127z M732.127,532.127
		c-33.815,33.815-80.528,54.73-132.127,54.73s-98.312-20.915-132.127-54.73V712C478.069,648.211,533.338,599.465,600,599.465
		S721.931,648.211,732.127,712V532.127z M467.873,532.127c-33.815-33.815-54.729-80.528-54.729-132.127
		s20.915-98.312,54.729-132.127H288C351.789,278.069,400.535,333.338,400.535,400S351.789,521.931,288,532.127H467.873z"/>
	<g id="g18126" transform="matrix(0.6693668,0,0,0.6693668,-12.084422,-8.6497923)">
		<g id="g18114">
			<path id="path17666" fill="#DBA627" d="M778.872,501.517c0-21.982,17.82-39.802,39.802-39.802
				c21.982,0,39.802,17.82,39.802,39.802s-17.82,39.802-39.802,39.802C796.693,541.319,778.872,523.499,778.872,501.517z"/>
			<path id="path17912" fill="#DBA627" d="M970.368,501.517c0-21.982,17.82-39.802,39.802-39.802s39.802,17.82,39.802,39.802
				s-17.82,39.802-39.802,39.802S970.368,523.499,970.368,501.517z"/>
		</g>
		<g id="g18118">
			<path id="path17918" fill="#DBA627" d="M778.872,719.486c0-21.982,17.82-39.802,39.802-39.802
				c21.982,0,39.801,17.821,39.801,39.802c0,21.982-17.82,39.802-39.802,39.802C796.691,759.288,778.872,741.468,778.872,719.486z"
				/>
			<path id="path17920" fill="#DBA627" d="M970.368,719.486c0-21.982,17.82-39.802,39.802-39.802s39.802,17.82,39.802,39.802
				s-17.82,39.802-39.802,39.802S970.368,741.468,970.368,719.486z"/>
		</g>
	</g>
	<path id="path13006" fill="#DBA627" d="M600,248.394l-28.738,126.404L448.395,400l122.867,25.201L600,551.605l28.738-126.404
		L751.606,400l-122.867-25.201L600,248.394z M600,287.378l21.347,93.9L712.622,400l-91.275,18.723L600,512.622l-21.347-93.9
		L487.378,400l91.275-18.723L600,287.378z"/>
</g>
</svg>
