<?xml version="1.0" encoding="utf-8"?>
<!-- Generator: Adobe Illustrator 17.0.0, SVG Export Plug-In . SVG Version: 6.00 Build 0)  -->
<!DOCTYPE svg PUBLIC "-//W3C//DTD SVG 1.1//EN" "http://www.w3.org/Graphics/SVG/1.1/DTD/svg11.dtd">
<svg version="1.1" id="Layer_1" xmlns="http://www.w3.org/2000/svg" xmlns:xlink="http://www.w3.org/1999/xlink" x="0px" y="0px"
	 width="800px" height="400px" viewBox="0 0 800 400" enable-background="new 0 0 800 400" xml:space="preserve">
<g>
	<g>
		<title>logo-coinbase</title>
		<path d="M274.737,281.634h1.992c1.958,0,3.132-0.469,3.521-1.42c0.389-0.945,0.584-5.485,0.584-13.615v-10.706
			c0-8.422-0.172-13.071-0.504-13.929c-0.338-0.865-1.351-1.3-3.035-1.3h-2.559v-1.987c3.504,0.149,6.962,0.218,10.38,0.218
			c2.845,0,5.427-0.069,7.752-0.218v1.987h-2.445c-1.506,0-2.445,0.183-2.828,0.538c-0.378,0.361-0.601,1.265-0.664,2.714
			c-0.109,2.256-0.16,6.269-0.16,12.04v10.895c0,8.193,0.178,12.704,0.538,13.534c0.361,0.83,1.517,1.248,3.464,1.248h2.096v1.993
			c-2.594-0.149-5.422-0.223-8.479-0.223c-3.567,0-6.784,0.074-9.653,0.223V281.634z"/>
		<path d="M331.831,258.493c0,4.746,0.813,8.874,2.439,12.395c1.62,3.521,3.79,6.16,6.51,7.918c2.719,1.763,5.828,2.639,9.327,2.639
			c3.246,0,6.08-0.75,8.507-2.244c2.422-1.494,4.328-3.721,5.72-6.67c1.391-2.949,2.09-6.555,2.09-10.809
			c0-4.471-0.773-8.285-2.313-11.445c-1.534-3.16-3.641-5.536-6.321-7.128c-2.674-1.591-5.851-2.387-9.515-2.387
			c-3.349,0-6.241,0.704-8.662,2.118c-2.428,1.409-4.329,3.475-5.708,6.195C332.524,251.794,331.831,254.932,331.831,258.493
			 M349.791,284.256c2.422,0.636,4.941,1.483,7.551,2.559c5.462,2.233,9.401,3.349,11.823,3.349c0.824,0,2.067-0.212,3.733-0.636
			v1.643c-2.364,1.225-4.11,2.382-5.25,3.475c-1.832-0.229-3.487-0.544-4.964-0.927c-1.477-0.389-3.721-1.145-6.733-2.261
			c-4.975-1.809-8.319-2.72-10.025-2.72c-0.486,0-0.996,0.109-1.534,0.321c-0.538,0.206-1.878,0.916-4.03,2.112v-2.084
			c3.607-2.422,6.195-4.031,7.752-4.832c-4.763,0-8.828-0.945-12.2-2.828c-3.372-1.884-6.006-4.58-7.901-8.078
			c-1.895-3.498-2.845-7.598-2.845-12.292c0-6.87,2.233-12.424,6.704-16.661c4.465-4.237,10.42-6.355,17.857-6.355
			c7.288,0,13.008,1.969,17.147,5.897c4.139,3.933,6.212,9.161,6.212,15.693c0,5.015-1.22,9.418-3.653,13.197
			c-2.433,3.784-5.622,6.687-9.561,8.708C357.051,282.991,353.69,283.901,349.791,284.256"/>
		<path d="M428.603,260.819c2.067,2.972,4.62,6.424,7.677,10.363l6.063,7.861c1.076,1.351,1.792,2.118,2.147,2.307
			c0.361,0.189,0.727,0.286,1.105,0.286h0.825v1.987c-1.752-0.149-3.275-0.218-4.58-0.218c-1.202,0-2.467,0.069-3.79,0.218
			l-11.181-15.098c-2.09-2.777-4.323-5.496-6.698-8.147l0.315-1.076c1.22,0.109,2.124,0.16,2.719,0.16
			c3.515,0,6.269-0.904,8.256-2.719c1.992-1.809,2.989-4.231,2.989-7.265c0-2.714-0.842-4.838-2.531-6.361
			c-1.683-1.528-4.116-2.29-7.294-2.29c-2.21,0-4.432,0.406-6.664,1.231c-0.252,3.349-0.384,6.928-0.384,10.741v15.252
			c0,7.437,0.183,11.559,0.538,12.367c0.361,0.813,1.517,1.22,3.475,1.22h2.468v1.987c-3.498-0.149-6.395-0.218-8.691-0.218
			c-1.809,0-5.084,0.069-9.819,0.218v-1.987h2.365c1.815,0,2.885-0.395,3.223-1.185c0.338-0.79,0.504-4.941,0.504-12.464v-15.189
			c0-6.533-0.195-10.185-0.584-10.964c-0.39-0.779-1.655-1.168-3.802-1.168h-1.706v-1.992c3.916,0.149,6.905,0.223,8.966,0.223
			c1.391,0,3.39-0.051,6.006-0.154c3.029-0.109,5.21-0.16,6.538-0.16c3.641,0,6.407,0.384,8.29,1.151
			c1.883,0.773,3.315,1.884,4.294,3.332c0.979,1.454,1.471,3.189,1.471,5.216c0,2.965-1.071,5.588-3.206,7.861
			C435.766,258.415,432.668,259.978,428.603,260.819"/>
		<path d="M492.051,265.876h15.91l-7.947-18.979L492.051,265.876z M509.147,268.463h-18.275l-2.141,5.084
			c-1.408,3.372-2.118,5.433-2.118,6.195c0,0.481,0.137,0.83,0.401,1.042c0.258,0.212,0.927,0.378,2.004,0.504l3.029,0.349v1.987
			c-2.015-0.143-4.294-0.217-6.819-0.217c-3.034,0-5.697,0.074-7.992,0.217v-1.987l0.945-0.034c1.477-0.04,2.434-0.195,2.863-0.458
			c0.429-0.263,0.888-0.91,1.374-1.941c1.494-3.035,3.017-6.309,4.58-9.824l8.685-19.678c2.319-5.221,3.893-9.011,4.74-11.37h2.147
			l15.979,37.174c1.076,2.531,1.792,4.048,2.153,4.563c0.355,0.521,0.767,0.887,1.231,1.111c0.464,0.218,1.506,0.372,3.126,0.458
			v1.987c-2.737-0.143-5.347-0.217-7.832-0.217c-2.319,0-5.404,0.074-9.258,0.217v-1.987l3.126-0.189
			c1.116-0.086,1.78-0.2,1.993-0.349c0.315-0.235,0.475-0.527,0.475-0.888c0-0.378-0.315-1.368-0.951-2.965L509.147,268.463z"/>
		<path d="M385.785,77.254v0.55c-0.928,0.155-1.878,0.252-2.783,0.487c-1.059,0.275-2.262,0.441-3.086,1.065
			c-3.349,2.571-4.58,9.727-2.468,13.351c1.798,3.086,3.338,6.349,5.376,9.263c3.091,4.414,6.218,8.868,9.887,12.79
			c3.355,3.578,7.38,6.555,11.239,9.641c4.111,3.298,8.359,6.424,12.572,9.59c4.317,3.252,8.651,6.481,13.008,9.681
			c4.299,3.155,8.639,6.263,12.95,9.395c4.162,3.023,8.342,6.017,12.464,9.092c4.116,3.074,8.176,6.229,12.269,9.344
			c5.072,3.859,10.357,7.471,15.183,11.628c4.975,4.288,9.658,8.948,14.181,13.723c3.979,4.197,7.151,8.977,7.695,15.012
			c0.126,1.448,0.87,2.29,2.279,2.514c0.899,0.137,1.815,0.246,2.719,0.252c6.538,0.017,13.082,0.017,19.62,0
			c0.847,0,1.689-0.115,2.536-0.206c1.815-0.189,2.611-1.248,2.124-2.972c-0.739-2.633-1.385-5.347-2.559-7.798
			c-2.783-5.8-6.721-10.855-11.176-15.464c-3.887-4.019-7.844-8.009-12.08-11.651c-3.842-3.298-8.05-6.183-12.2-9.097
			c-3.618-2.542-7.477-4.74-11.061-7.328c-5.113-3.693-10.031-7.666-15.109-11.416c-6.384-4.723-12.813-9.372-19.271-13.992
			c-6.355-4.546-12.756-9.023-19.157-13.506c-6.235-4.368-12.578-8.593-18.716-13.093c-6.67-4.884-9.607-11.788-9.853-19.895
			c-0.08-2.822,1.277-4.357,4.053-4.024c4.076,0.486,8.399-0.367,12.189,2.084c0.876,0.567,2.13,0.561,3.212,0.802
			c1.466,0.315,2.926,0.71,4.408,0.905c3.103,0.406,6.212,0.847,9.327,1.002c3.103,0.154,5.983-1.105,8.427-2.788
			c4.62-3.183,8.84-6.899,12.143-11.513c0.424-0.584,0.687-1.277,1.025-1.924c-0.773-0.384-1.528-1.059-2.324-1.105
			c-2.869-0.166-5.771-0.326-8.622-0.069c-1.569,0.143-3.126,1.013-4.574,1.769c-2.874,1.494-5.502,3.67-8.531,4.592
			c-4.603,1.391-9.464,0.87-14.204,0.074c-0.533-0.092-0.991-0.653-1.483-0.991c0.527-0.406,1.002-1.002,1.597-1.179
			c2.004-0.59,4.077-0.945,6.069-1.569c0.767-0.24,1.391-0.956,2.078-1.454c-0.796-0.55-1.603-1.586-2.376-1.557
			c-4.105,0.143-8.238,0.315-12.28,0.973c-2.136,0.349-4.105,1.717-6.424,2.748c0.687,0.653,0.979,0.991,1.328,1.243
			c2.164,1.552,4.368,3.051,6.481,4.666c0.298,0.229,0.452,1.231,0.24,1.442c-0.842,0.836-4.139,0.722-4.987-0.177
			c-3.75-3.962-7.42-8.004-11.17-11.966c-2.067-2.176-4.208-4.277-6.395-6.326c-0.338-0.315-1.128-0.143-1.706-0.195
			c-0.023,0.544-0.263,1.214-0.035,1.614c0.847,1.454,1.901,2.783,2.777,4.225c1.591,2.611,3.154,5.244,4.626,7.924
			c0.269,0.492,0.149,1.276,0,1.872c-0.046,0.195-0.847,0.429-1.151,0.298c-2.067-0.922-4.432-1.557-6.052-3.006
			c-2.078-1.872-3.595-4.385-5.273-6.687c-2.8-3.836-5.502-7.746-8.302-11.588c-1.912-2.628-3.778-5.353-6.962-6.641
			c-1.62-0.659-3.298-1.191-4.958-1.746c-3.504-1.173-6.95-2.863-10.552-3.349c-4.288-0.584-8.72-0.246-13.076-0.08
			c-3.973,0.149-6.481,2.931-6.51,6.887c-0.034,4.964-0.057,9.928-0.023,14.891c0.012,1.363,0.034,2.788,0.412,4.082
			c1.345,4.62,2.805,9.218,4.305,13.792c0.767,2.347,1.683,4.649,2.565,6.956c0.991,2.611,1.907,5.261,3.057,7.803
			c1.637,3.601,3.149,7.317,5.279,10.62c2.92,4.529,6.166,8.891,9.641,13.013c4.529,5.37,9.206,10.66,14.221,15.573
			c4.832,4.735,10.145,8.983,15.298,13.38c5.496,4.695,11.021,9.355,16.586,13.97c4.866,4.03,9.876,7.895,14.696,11.983
			c7.363,6.229,14.685,12.504,21.115,19.746c3.321,3.75,6.338,7.598,7.145,12.738c0.195,1.225,0.876,2.004,2.244,2.021
			c7.58,0.074,15.166,0.223,22.746,0.229c2.811,0.006,3.893-1.271,3.143-4.036c-0.681-2.525-1.649-5.119-3.103-7.26
			c-4.311-6.344-9.916-11.531-15.83-16.363c-5.09-4.162-10.3-8.181-15.447-12.28c-4.483-3.567-8.92-7.191-13.431-10.712
			c-5.136-4.008-10.363-7.901-15.498-11.909c-4.878-3.807-9.721-7.666-14.536-11.553c-4.048-3.275-8.267-6.389-11.989-10.008
			c-4.758-4.62-9.166-9.607-13.574-14.571c-2.674-3.011-5.216-6.177-7.529-9.481c-1.769-2.536-3.24-5.319-4.563-8.124
			c-1.935-4.076-3.71-8.347-3.269-12.933c0.338-3.47,1.282-6.922,2.364-10.254c0.876-2.697,4.294-4.54,6.79-3.859
			c4.46,1.208,8.88,2.582,13.271,4.031C382.321,75.49,384.027,76.452,385.785,77.254"/>
		<path d="M582.631,178.144h0.057c0-4.574,0.057-9.155-0.04-13.723c-0.029-1.202-0.258-2.565-0.87-3.555
			c-1.362-2.199-2.988-4.248-4.586-6.298c-3.201-4.111-6.458-8.175-9.687-12.263c-2.141-2.714-4.225-5.462-6.412-8.141
			c-1.099-1.346-2.748-1.008-3.366,0.641c-0.298,0.79-0.447,1.637-0.658,2.462c-0.372,1.471-1.294,2.639-2.794,2.622
			c-2.966-0.035-6.183,0.286-8.834-0.744c-6.097-2.37-11.909-5.456-17.834-8.256c-1.763-0.83-3.51-1.7-5.296-2.479
			c-4.162-1.815-8.319-3.659-12.538-5.347c-2.714-1.082-5.536-1.895-8.302-2.857c-2.21-0.767-4.414-1.552-6.613-2.353
			c-3.046-1.116-6.091-2.25-9.132-3.39c-4.219-1.586-7.729-3.933-9.515-8.359c-0.573-1.426-1.437-2.823-2.479-3.95
			c-1.815-1.958-2.009-3.538-0.698-6.012c1.912-3.613,3.681-7.305,5.439-10.992c1.895-3.99,3.676-8.038,5.582-12.023
			c0.996-2.078,0.595-3.023-1.643-3.069c-3.269-0.074-6.538-0.109-9.802,0.034c-0.939,0.04-2.113,0.521-2.719,1.208
			c-1.179,1.34-2.09,2.937-3.023,4.483c-1.746,2.903-3.441,5.828-5.124,8.759c-1.712,2.989-3.343,6.017-5.09,8.977
			c-0.796,1.339-2.055,1.987-3.67,1.689c-1.603-0.298-3.195-0.716-4.809-0.905c-4.002-0.464-8.009-0.922-12.023-1.168
			c-0.865-0.057-1.786,0.761-2.685,1.179c0.572,1.082,0.904,2.439,1.763,3.201c1.345,1.185,3.046,1.964,4.586,2.931
			c3.956,2.49,7.775,5.244,11.897,7.432c5.788,3.068,11.88,5.565,17.685,8.611c3,1.58,5.96,3.504,8.41,5.828
			c5.817,5.525,11.21,11.491,16.987,17.05c3.75,3.607,7.718,7.03,11.874,10.145c4.002,2.994,8.57,5.233,12.538,8.261
			c5.33,4.065,10.523,8.359,15.412,12.933c5.525,5.176,10.191,11.147,14.13,17.645c1.683,2.777,3.401,5.554,4.872,8.445
			c1.282,2.53,2.359,5.181,3.32,7.855c0.79,2.204,1.254,4.523,1.907,6.784c0.395,1.386,1.225,2.182,2.817,2.199
			c7.643,0.092,15.292,0.246,22.935,0.406c1.694,0.034,2.805-0.744,2.605-2.393c-0.326-2.685-0.853-5.365-1.546-7.981
			c-0.882-3.32-2.576-6.515-2.897-9.859C582.264,188.627,582.631,183.366,582.631,178.144"/>
		<path d="M276,90.505c0.292,0.052,0.584,0.097,0.876,0.149c-0.126,1.116-0.092,2.285-0.418,3.338
			c-1.042,3.355-2.508,6.596-3.281,10.002c-1.511,6.67-3.143,13.374-3.841,20.158c-0.796,7.712-0.47,15.538-0.928,23.296
			c-0.355,6.12,2.096,11.639,3.189,17.445c0.504,2.674,1.426,5.279,2.238,7.889c0.95,3.046,2.067,6.04,2.96,9.103
			c1.042,3.555,1.758,7.213,2.914,10.729c1.901,5.794,2.445,11.428-0.567,17.055c-0.893,1.666-0.275,2.611,1.655,2.628
			c7.849,0.052,15.693,0.029,23.542-0.068c0.802-0.006,2.09-0.533,2.302-1.122c0.767-2.164,1.86-4.551,1.586-6.692
			c-0.595-4.712-2.359-9.161-4.723-13.346c-1.758-3.114-3.355-6.32-4.987-9.504c-1.661-3.24-3.304-6.498-4.906-9.767
			c-1.855-3.79-3.876-7.517-5.433-11.433c-1.946-4.883-3.589-9.904-5.187-14.92c-2.004-6.292-3.298-12.721-3.641-19.357
			c-0.561-10.832,0.172-21.561,2.496-32.141c0.83-3.796,2.164-7.488,3.32-11.21c0.595-1.924,1.386-3.784,1.935-5.714
			c0.189-0.67,0.143-1.66-0.246-2.141c-0.269-0.343-1.397-0.298-1.97-0.04c-1.185,0.527-2.284,1.254-3.355,1.993
			c-4.7,3.257-9.206,6.841-14.107,9.761c-7.803,4.655-12.487,12.023-17.553,19.094c-0.349,0.487-0.12,1.391-0.16,2.095
			c0.67-0.229,1.466-0.303,1.981-0.721c3.681-3.006,7.294-6.086,10.97-9.103c0.263-0.217,0.796-0.103,1.208-0.149
			c-0.057,0.412,0.046,0.956-0.183,1.208c-2.05,2.295-4.174,4.517-6.241,6.796c-3.492,3.87-6.87,7.861-10.466,11.634
			c-3.229,3.389-6.464,6.83-10.088,9.761c-5.57,4.512-10.443,9.618-14.668,15.367c-3.933,5.342-7.798,10.74-11.651,16.139
			c-0.389,0.55-0.492,1.294-0.733,1.947c0.681-0.166,1.529-0.132,2.015-0.533c3.727-3.046,7.546-6.005,11.021-9.321
			c4.655-4.443,9.263-8.971,13.454-13.843c4.78-5.559,9.069-11.531,13.603-17.296c0.223-0.281,0.75-0.326,1.134-0.481
			c0.074,0.407,0.252,0.825,0.206,1.214c-0.046,0.366-0.303,0.721-0.509,1.048c-2.422,3.836-4.769,7.729-7.3,11.491
			c-4.145,6.143-8.307,12.28-12.652,18.281c-6.481,8.943-13.792,17.176-21.596,24.996c-1.013,1.008-1.803,2.685-1.884,4.094
			c-0.24,4.242-0.109,8.496-0.052,12.75c0.012,0.842,0.344,1.683,0.533,2.519c0.2,0.051,0.401,0.098,0.601,0.149
			c1.363-1.609,2.765-3.177,4.082-4.821c3.263-4.065,6.59-8.084,9.704-12.264c2.559-3.435,4.946-7.013,7.237-10.643
			c2.639-4.174,5.136-8.433,7.597-12.721c2.519-4.397,4.958-8.845,7.357-13.311c1.878-3.487,3.641-7.025,5.456-10.546
			c1.758-3.401,3.498-6.813,5.279-10.208c1.689-3.218,3.401-6.424,5.164-9.601c0.292-0.532,0.887-0.904,1.34-1.351
			c0.137,0.641,0.544,1.374,0.372,1.918c-0.619,1.975-1.409,3.899-2.176,5.823c-0.888,2.233-1.809,4.454-2.748,6.67
			c-1.059,2.508-2.244,4.97-3.217,7.512c-1.735,4.551-3.349,9.149-5.021,13.718c-0.784,2.135-1.569,4.271-2.37,6.401
			c-1.099,2.92-2.193,5.845-3.326,8.748c-0.996,2.542-2.061,5.055-3.063,7.592c-1.259,3.201-2.771,6.338-3.658,9.647
			c-1.471,5.462-2.347,11.084-3.853,16.54c-0.779,2.834-2.198,5.548-3.653,8.13c-1.139,2.021-2.834,3.716-4.162,5.645
			c-0.515,0.744-0.693,1.729-1.025,2.599c0.779,0.269,1.552,0.761,2.336,0.767c7.322,0.057,14.645,0.057,21.968-0.006
			c0.939-0.006,2.261-0.149,2.736-0.756c1.832-2.336,3.928-4.689,4.952-7.397c2.456-6.481,2.622-13.259,1.386-20.096
			c-2.502-13.792-1.351-27.435,1.872-40.981c1.145-4.815,2.084-9.682,3.246-14.491c0.865-3.607,1.901-7.18,2.937-10.741
			c0.687-2.376,1.454-4.729,2.278-7.059c1.059-3,2.176-5.983,3.332-8.948c0.899-2.302,1.832-4.592,2.874-6.83
			C274.311,93.224,275.204,91.89,276,90.505"/>
		<path d="M397.726,231.282c62.37,0,124.741,0,187.117,0c0.716,0,1.437,0.006,2.159-0.017c1.242-0.04,1.958-0.658,1.969-1.941
			c0.023-1.632,0.195-3.298-0.074-4.889c-0.115-0.699-1.071-1.391-1.809-1.803c-0.498-0.281-1.277-0.068-1.929-0.068
			c-124.289-0.006-248.571-0.006-372.86-0.006c-5.531,0-5.382-0.492-5.336,5.296c0.029,3.292,0.16,3.429,3.452,3.429
			C272.854,231.282,335.287,231.282,397.726,231.282"/>
		<path d="M402.996,215.847v0.08c3.727,0,7.454,0.063,11.175-0.017c2.771-0.063,4.082-1.855,3.556-4.575
			c-0.836-4.288-3.384-7.609-6.349-10.552c-7.529-7.483-15.074-14.954-22.849-22.179c-8.966-8.342-18.367-16.22-27.217-24.682
			c-5.594-5.342-10.769-11.17-15.67-17.164c-3.567-4.351-6.67-9.149-9.435-14.061c-2.92-5.187-5.33-10.683-7.712-16.151
			c-2.233-5.119-4.157-10.369-6.183-15.573c-0.893-2.301-2.141-4.575-2.485-6.967c-1.082-7.42-2.496-14.846-1.952-22.408
			c0.103-1.403,0.481-2.823,0.95-4.162c0.75-2.13,1.741-4.18,2.496-6.315c0.201-0.561,0.017-1.328-0.195-1.935
			c-0.051-0.143-1.019-0.178-1.391,0.04c-2.296,1.345-4.655,2.634-6.773,4.225c-3.39,2.554-6.058,5.897-6.143,10.237
			c-0.166,8.548-0.046,17.118,0.378,25.655c0.149,2.988,1.409,5.954,2.387,8.851c0.956,2.828,2.239,5.542,3.315,8.33
			c1.689,4.368,3.201,8.8,5.004,13.117c1.683,4.013,3.464,8.004,5.525,11.828c2.279,4.219,4.609,8.479,7.477,12.303
			c4.323,5.765,8.989,11.302,13.78,16.695c4.334,4.872,8.995,9.458,13.597,14.09c3.773,3.802,7.787,7.363,11.491,11.227
			c4.826,5.038,9.55,10.18,14.135,15.441c2.949,3.389,5.605,7.013,5.542,11.926c-0.029,2.158,0.733,2.679,2.954,2.691
			C395.937,215.865,399.463,215.847,402.996,215.847"/>
		<path d="M347.954,215.153c3.464,0,6.927,0.035,10.391-0.006c4.494-0.057,5.823-2.239,4.552-6.527
			c-1.534-5.164-4.741-9.298-8.033-13.259c-6.825-8.21-14.05-16.082-21.011-24.183c-2.88-3.349-5.605-6.847-8.233-10.403
			c-2.353-3.189-4.54-6.498-6.676-9.836c-1.924-3.006-3.847-6.034-5.468-9.212c-2.118-4.162-3.985-8.462-5.868-12.744
			c-0.99-2.262-1.826-4.592-2.645-6.922c-1.254-3.55-2.559-7.094-3.618-10.706c-1.059-3.618-2.387-7.283-2.628-10.993
			c-0.458-6.962-0.435-13.975-0.2-20.96c0.137-3.933,1.134-7.832,1.655-11.759c0.086-0.63-0.275-1.317-0.435-1.969
			c-0.613,0.229-1.345,0.315-1.826,0.716c-4.592,3.807-6.372,9.149-7.403,14.691c-1.145,6.149-2.124,12.366-2.576,18.595
			c-0.332,4.586-0.052,9.292,0.601,13.849c0.704,4.941,2.096,9.79,3.309,14.645c0.807,3.218,1.769,6.395,2.765,9.561
			c0.601,1.918,1.294,3.824,2.13,5.651c1.752,3.841,3.556,7.66,5.479,11.416c1.683,3.292,3.389,6.601,5.387,9.71
			c3.756,5.851,7.712,11.576,11.622,17.33c3.836,5.651,7.734,11.267,11.559,16.924c2.725,4.025,4.649,8.261,3.733,13.357
			c-0.401,2.221,0.401,3.011,2.651,3.029C340.763,215.176,344.359,215.153,347.954,215.153"/>
		<path d="M492.375,111.214c3.441,0.029,7.889-1.729,10.082-4.03c1.442-1.517,2.92-3.223,3.681-5.13
			c1.214-3.063,1.809-6.372,2.736-9.555c0.905-3.115,1.712-6.28,2.897-9.292c2.016-5.118-0.921-9.2-6.441-8.72
			c-1.031,0.092-2.09,0.052-3.12-0.068c-2.044-0.235-3.584,0.733-4.334,2.387c-1.649,3.67-3.04,7.454-4.454,11.227
			c-1.649,4.368-3.126,8.805-4.849,13.145c-0.664,1.666-1.706,3.218-2.771,4.672c-1.145,1.557-0.956,3.275,0.887,3.91
			C488.774,110.481,490.972,110.865,492.375,111.214"/>
		<path d="M505.185,111.361c3.051,1.134,5.765,2.153,8.49,3.149c2.742,0.996,5.571,1.809,8.233,2.988
			c3.945,1.746,8.027,2.078,12.24,1.872c5.708-0.275,7.826-7.117,6.424-11.027c-0.859-2.404-2.851-4.431-4.454-6.538
			c-2.399-3.16-4.855-6.281-7.402-9.332c-0.573-0.687-1.586-1.002-2.399-1.489c-0.406,0.824-0.968,1.614-1.202,2.485
			c-0.853,3.206-1.334,6.533-2.467,9.624c-0.836,2.284-2.439,4.179-4.901,5.324c-2.428,1.14-4.872,1.248-7.426,1.3
			C508.62,109.752,506.794,109.643,505.185,111.361"/>
		<path d="M279.554,74.687c-0.355-0.458-0.676-1.025-0.773-0.985c-1.197,0.441-2.37,0.945-3.504,1.523
			c-0.092,0.046,0.183,1.134,0.275,1.134c0.927-0.023,1.895-0.04,2.76-0.332C278.798,75.86,279.113,75.185,279.554,74.687"/>
		<path d="M385.785,77.254c-1.758-0.801-3.464-1.763-5.29-2.37c-4.391-1.449-8.811-2.823-13.271-4.031
			c-2.496-0.681-5.914,1.162-6.79,3.859c-1.082,3.332-2.027,6.784-2.364,10.254c-0.441,4.586,1.334,8.857,3.269,12.933
			c1.323,2.805,2.794,5.588,4.563,8.124c2.313,3.304,4.855,6.47,7.529,9.481c4.409,4.964,8.817,9.95,13.574,14.571
			c3.722,3.618,7.941,6.733,11.989,10.008c4.815,3.887,9.658,7.746,14.536,11.553c5.136,4.008,10.363,7.901,15.498,11.909
			c4.511,3.521,8.948,7.145,13.431,10.712c5.147,4.099,10.357,8.118,15.447,12.28c5.914,4.832,11.519,10.019,15.83,16.363
			c1.454,2.141,2.422,4.735,3.103,7.26c0.75,2.765-0.332,4.042-3.143,4.036c-7.58-0.006-15.166-0.154-22.746-0.229
			c-1.368-0.017-2.049-0.796-2.244-2.021c-0.807-5.141-3.825-8.988-7.145-12.738c-6.429-7.242-13.752-13.517-21.115-19.746
			c-4.821-4.088-9.83-7.953-14.696-11.983c-5.565-4.615-11.09-9.275-16.586-13.97c-5.153-4.397-10.466-8.645-15.298-13.38
			c-5.015-4.912-9.693-10.203-14.221-15.573c-3.475-4.122-6.721-8.485-9.641-13.013c-2.13-3.303-3.641-7.019-5.279-10.62
			c-1.151-2.542-2.067-5.193-3.057-7.803c-0.882-2.307-1.798-4.609-2.565-6.956c-1.5-4.575-2.96-9.172-4.305-13.792
			c-0.378-1.294-0.401-2.719-0.412-4.082c-0.034-4.964-0.012-9.928,0.023-14.891c0.029-3.956,2.537-6.739,6.51-6.887
			c4.357-0.166,8.788-0.504,13.076,0.08c3.601,0.486,7.048,2.176,10.552,3.349c1.66,0.556,3.338,1.088,4.958,1.746
			c3.183,1.288,5.05,4.013,6.962,6.641c2.8,3.842,5.502,7.752,8.302,11.588c1.678,2.302,3.195,4.815,5.273,6.687
			c1.62,1.448,3.985,2.084,6.052,3.006c0.303,0.132,1.105-0.103,1.151-0.298c0.149-0.595,0.269-1.38,0-1.872
			c-1.471-2.68-3.035-5.313-4.626-7.924c-0.876-1.442-1.93-2.771-2.777-4.225c-0.229-0.401,0.012-1.071,0.035-1.614
			c0.578,0.051,1.368-0.12,1.706,0.195c2.187,2.049,4.328,4.151,6.395,6.326c3.75,3.962,7.42,8.004,11.17,11.966
			c0.847,0.899,4.145,1.013,4.987,0.177c0.212-0.212,0.057-1.214-0.24-1.442c-2.113-1.615-4.317-3.115-6.481-4.666
			c-0.349-0.252-0.641-0.59-1.328-1.243c2.319-1.03,4.288-2.399,6.424-2.748c4.042-0.658,8.175-0.83,12.28-0.973
			c0.773-0.029,1.58,1.007,2.376,1.557c-0.687,0.498-1.311,1.214-2.078,1.454c-1.992,0.624-4.065,0.979-6.069,1.569
			c-0.595,0.178-1.071,0.773-1.597,1.179c0.492,0.338,0.95,0.899,1.483,0.991c4.741,0.796,9.601,1.317,14.204-0.074
			c3.029-0.922,5.657-3.097,8.531-4.592c1.449-0.756,3.006-1.626,4.574-1.769c2.851-0.258,5.754-0.097,8.622,0.069
			c0.796,0.046,1.552,0.721,2.324,1.105c-0.338,0.647-0.601,1.34-1.025,1.924c-3.304,4.614-7.523,8.33-12.143,11.513
			c-2.445,1.683-5.324,2.943-8.427,2.788c-3.115-0.154-6.223-0.595-9.327-1.002c-1.483-0.195-2.943-0.59-4.408-0.905
			c-1.082-0.24-2.336-0.235-3.212-0.802c-3.79-2.45-8.113-1.597-12.189-2.084c-2.777-0.332-4.134,1.202-4.053,4.024
			c0.246,8.107,3.183,15.012,9.853,19.895c6.137,4.5,12.481,8.725,18.716,13.093c6.401,4.483,12.802,8.96,19.157,13.506
			c6.458,4.62,12.887,9.269,19.271,13.992c5.078,3.75,9.996,7.723,15.109,11.416c3.584,2.588,7.443,4.786,11.061,7.328
			c4.151,2.914,8.359,5.8,12.2,9.097c4.237,3.641,8.193,7.632,12.08,11.651c4.454,4.609,8.393,9.664,11.176,15.464
			c1.174,2.451,1.821,5.164,2.559,7.798c0.486,1.723-0.309,2.783-2.124,2.972c-0.847,0.092-1.689,0.206-2.536,0.206
			c-6.538,0.017-13.082,0.017-19.62,0c-0.905-0.006-1.821-0.115-2.719-0.252c-1.409-0.223-2.153-1.065-2.279-2.514
			c-0.544-6.034-3.716-10.815-7.695-15.012c-4.523-4.775-9.206-9.435-14.181-13.723c-4.826-4.157-10.111-7.769-15.183-11.628
			c-4.093-3.115-8.153-6.269-12.269-9.344c-4.122-3.074-8.302-6.069-12.464-9.092c-4.311-3.132-8.651-6.24-12.95-9.395
			c-4.357-3.2-8.691-6.429-13.008-9.681c-4.214-3.166-8.462-6.292-12.572-9.59c-3.859-3.086-7.884-6.063-11.239-9.641
			c-3.67-3.922-6.796-8.376-9.887-12.79c-2.038-2.914-3.578-6.177-5.376-9.263c-2.112-3.624-0.882-10.781,2.468-13.351
			c0.824-0.624,2.027-0.79,3.086-1.065c0.905-0.235,1.855-0.332,2.783-0.487V77.254z"/>
		<path d="M582.631,178.144c0,5.222-0.367,10.483,0.131,15.664c0.321,3.343,2.016,6.538,2.897,9.859
			c0.693,2.617,1.219,5.296,1.546,7.981c0.201,1.649-0.91,2.427-2.605,2.393c-7.643-0.16-15.292-0.315-22.935-0.406
			c-1.591-0.017-2.422-0.813-2.817-2.199c-0.652-2.261-1.116-4.58-1.907-6.784c-0.962-2.674-2.038-5.324-3.32-7.855
			c-1.471-2.891-3.189-5.668-4.872-8.445c-3.939-6.498-8.605-12.469-14.13-17.645c-4.889-4.575-10.082-8.868-15.412-12.933
			c-3.968-3.029-8.536-5.267-12.538-8.261c-4.157-3.115-8.124-6.538-11.874-10.145c-5.777-5.559-11.17-11.525-16.987-17.05
			c-2.45-2.324-5.41-4.248-8.41-5.828c-5.806-3.046-11.897-5.542-17.685-8.611c-4.122-2.187-7.941-4.941-11.897-7.432
			c-1.54-0.968-3.241-1.746-4.586-2.931c-0.859-0.761-1.191-2.118-1.763-3.201c0.899-0.418,1.821-1.237,2.685-1.179
			c4.013,0.246,8.021,0.704,12.023,1.168c1.615,0.189,3.206,0.607,4.809,0.905c1.614,0.298,2.874-0.349,3.67-1.689
			c1.746-2.96,3.378-5.989,5.09-8.977c1.683-2.931,3.378-5.857,5.124-8.759c0.933-1.546,1.844-3.143,3.023-4.483
			c0.607-0.687,1.78-1.168,2.719-1.208c3.263-0.143,6.532-0.109,9.802-0.034c2.238,0.046,2.639,0.99,1.643,3.069
			c-1.907,3.985-3.687,8.033-5.582,12.023c-1.757,3.687-3.527,7.38-5.439,10.992c-1.311,2.473-1.116,4.053,0.698,6.012
			c1.042,1.128,1.907,2.525,2.479,3.95c1.786,4.425,5.296,6.773,9.515,8.359c3.04,1.14,6.086,2.273,9.132,3.39
			c2.199,0.801,4.403,1.586,6.613,2.353c2.765,0.962,5.588,1.775,8.302,2.857c4.219,1.689,8.376,3.532,12.538,5.347
			c1.786,0.779,3.532,1.649,5.296,2.479c5.925,2.8,11.737,5.886,17.834,8.256c2.651,1.03,5.868,0.71,8.834,0.744
			c1.5,0.017,2.422-1.151,2.794-2.622c0.212-0.825,0.361-1.672,0.658-2.462c0.618-1.649,2.267-1.987,3.366-0.641
			c2.187,2.679,4.271,5.427,6.412,8.141c3.229,4.088,6.487,8.152,9.687,12.263c1.597,2.05,3.223,4.099,4.586,6.298
			c0.613,0.99,0.842,2.353,0.87,3.555c0.097,4.569,0.04,9.149,0.04,13.723H582.631z"/>
		<path d="M276,90.505c-0.796,1.386-1.689,2.72-2.353,4.163c-1.042,2.239-1.975,4.528-2.874,6.83
			c-1.157,2.966-2.273,5.949-3.332,8.948c-0.824,2.33-1.591,4.683-2.278,7.059c-1.036,3.561-2.073,7.134-2.937,10.741
			c-1.162,4.809-2.101,9.676-3.246,14.491c-3.223,13.546-4.374,27.189-1.872,40.981c1.237,6.836,1.071,13.615-1.386,20.096
			c-1.025,2.708-3.12,5.061-4.952,7.397c-0.475,0.607-1.798,0.75-2.736,0.756c-7.322,0.063-14.645,0.063-21.968,0.006
			c-0.784-0.006-1.557-0.498-2.336-0.767c0.332-0.87,0.509-1.855,1.025-2.599c1.328-1.93,3.023-3.624,4.162-5.645
			c1.454-2.582,2.874-5.296,3.653-8.13c1.506-5.456,2.382-11.078,3.853-16.54c0.887-3.309,2.399-6.446,3.658-9.647
			c1.002-2.536,2.067-5.049,3.063-7.592c1.134-2.903,2.227-5.828,3.326-8.748c0.802-2.129,1.586-4.265,2.37-6.401
			c1.672-4.569,3.286-9.166,5.021-13.718c0.973-2.542,2.158-5.004,3.217-7.512c0.939-2.215,1.861-4.437,2.748-6.67
			c0.767-1.924,1.557-3.847,2.176-5.823c0.172-0.544-0.235-1.277-0.372-1.918c-0.453,0.447-1.048,0.819-1.34,1.351
			c-1.763,3.177-3.475,6.384-5.164,9.601c-1.78,3.395-3.521,6.807-5.279,10.208c-1.815,3.521-3.578,7.059-5.456,10.546
			c-2.399,4.466-4.838,8.914-7.357,13.311c-2.462,4.288-4.958,8.548-7.597,12.721c-2.29,3.63-4.677,7.208-7.237,10.643
			c-3.115,4.179-6.441,8.199-9.704,12.264c-1.317,1.643-2.72,3.212-4.082,4.821c-0.2-0.051-0.401-0.097-0.601-0.149
			c-0.189-0.836-0.521-1.677-0.533-2.519c-0.057-4.254-0.189-8.508,0.052-12.75c0.08-1.409,0.87-3.086,1.884-4.094
			c7.803-7.82,15.114-16.053,21.596-24.996c4.345-6,8.507-12.137,12.652-18.281c2.531-3.762,4.878-7.655,7.3-11.491
			c0.206-0.326,0.464-0.681,0.509-1.048c0.046-0.389-0.132-0.807-0.206-1.214c-0.384,0.155-0.91,0.201-1.134,0.481
			c-4.534,5.765-8.823,11.737-13.603,17.296c-4.191,4.872-8.8,9.401-13.454,13.843c-3.475,3.315-7.294,6.275-11.021,9.321
			c-0.487,0.401-1.334,0.367-2.015,0.533c0.24-0.653,0.344-1.397,0.733-1.947c3.853-5.399,7.718-10.798,11.651-16.139
			c4.225-5.748,9.097-10.855,14.668-15.367c3.624-2.931,6.859-6.372,10.088-9.761c3.595-3.773,6.973-7.763,10.466-11.634
			c2.067-2.279,4.191-4.5,6.241-6.796c0.229-0.252,0.126-0.796,0.183-1.208c-0.412,0.046-0.945-0.068-1.208,0.149
			c-3.676,3.017-7.288,6.097-10.97,9.103c-0.515,0.418-1.311,0.492-1.981,0.721c0.04-0.704-0.189-1.608,0.16-2.095
			c5.067-7.071,9.75-14.439,17.553-19.094c4.901-2.92,9.407-6.504,14.107-9.761c1.071-0.739,2.17-1.466,3.355-1.993
			c0.573-0.258,1.701-0.303,1.97,0.04c0.389,0.481,0.435,1.471,0.246,2.141c-0.55,1.93-1.34,3.79-1.935,5.714
			c-1.156,3.722-2.49,7.414-3.32,11.21c-2.324,10.58-3.057,21.309-2.496,32.141c0.344,6.635,1.637,13.065,3.641,19.357
			c1.598,5.016,3.241,10.037,5.187,14.92c1.557,3.916,3.578,7.643,5.433,11.433c1.603,3.269,3.246,6.527,4.906,9.767
			c1.632,3.183,3.229,6.389,4.987,9.504c2.365,4.185,4.128,8.634,4.723,13.346c0.275,2.141-0.819,4.528-1.586,6.692
			c-0.212,0.59-1.5,1.116-2.302,1.122c-7.849,0.097-15.693,0.12-23.542,0.068c-1.929-0.017-2.548-0.962-1.655-2.628
			c3.011-5.628,2.468-11.261,0.567-17.055c-1.156-3.515-1.872-7.174-2.914-10.729c-0.893-3.063-2.01-6.058-2.96-9.103
			c-0.813-2.611-1.735-5.216-2.238-7.889c-1.093-5.806-3.544-11.325-3.189-17.445c0.458-7.758,0.132-15.584,0.928-23.296
			c0.698-6.784,2.33-13.488,3.841-20.158c0.773-3.406,2.239-6.647,3.281-10.002c0.326-1.053,0.292-2.221,0.418-3.338
			C276.584,90.602,276.292,90.556,276,90.505"/>
		<path d="M588.993,301.654c-0.103-2.845-0.533-3.275-3.355-3.281c-17.198,0-34.397,0-51.595,0c-0.716,0-1.437,0-2.159-0.011
			c-0.166,0-0.315-0.017-0.469-0.035h-70.615c-0.578,0.006-1.151,0.017-1.729,0.029c-2.616,0.04-5.233,0.017-7.849,0
			c-0.143,0-0.281-0.017-0.418-0.029h-81.716c-0.504,0.006-1.013,0.017-1.517,0.023c-0.28,0-0.561-0.012-0.847-0.023h-44.364
			c-10.271-0.08-20.537-0.475-30.807-0.475c-10.523,0-21.04,0.435-31.563,0.498c-16.019,0.092-32.038,0.023-48.063,0.023
			c-4.884,0-4.975,0.092-4.958,5.044c0.006,3.309,0.407,3.71,3.727,3.716c49.758,0.115,99.51,0.235,149.268,0.326
			c4.637,0.006,9.275-0.309,13.907-0.315c69.968-0.017,139.935-0.012,209.898-0.012C589.17,307.133,589.188,307.116,588.993,301.654
			"/>
		<path d="M397.726,231.283c-62.439,0-124.873,0-187.312,0c-3.292,0-3.424-0.137-3.452-3.429c-0.046-5.794-0.195-5.296,5.336-5.296
			c124.288,0,248.571,0,372.86,0.006c0.653,0,1.431-0.212,1.929,0.068c0.739,0.412,1.695,1.105,1.809,1.803
			c0.269,1.586,0.097,3.252,0.074,4.889c-0.012,1.277-0.727,1.901-1.969,1.941c-0.722,0.023-1.443,0.017-2.159,0.017
			C522.467,231.283,460.097,231.283,397.726,231.283"/>
		<path d="M402.996,215.847c-3.532,0-7.059,0.017-10.592-0.006c-2.221-0.012-2.983-0.533-2.954-2.691
			c0.063-4.912-2.594-8.536-5.542-11.926c-4.586-5.262-9.309-10.403-14.135-15.441c-3.704-3.864-7.717-7.426-11.491-11.227
			c-4.603-4.632-9.263-9.218-13.597-14.09c-4.792-5.393-9.458-10.929-13.78-16.695c-2.868-3.824-5.198-8.084-7.477-12.303
			c-2.061-3.824-3.842-7.815-5.525-11.828c-1.803-4.317-3.315-8.748-5.004-13.117c-1.076-2.788-2.359-5.502-3.315-8.33
			c-0.979-2.897-2.238-5.863-2.387-8.851c-0.424-8.536-0.544-17.107-0.378-25.655c0.086-4.34,2.754-7.683,6.143-10.237
			c2.118-1.591,4.477-2.88,6.773-4.225c0.372-0.218,1.34-0.183,1.391-0.04c0.212,0.607,0.395,1.374,0.195,1.935
			c-0.755,2.135-1.746,4.185-2.496,6.315c-0.47,1.339-0.847,2.76-0.95,4.162c-0.544,7.563,0.87,14.988,1.952,22.408
			c0.343,2.393,1.592,4.666,2.485,6.967c2.027,5.204,3.95,10.454,6.183,15.573c2.381,5.467,4.792,10.964,7.712,16.151
			c2.765,4.912,5.868,9.71,9.435,14.061c4.901,5.994,10.076,11.823,15.67,17.164c8.851,8.462,18.252,16.34,27.217,24.682
			c7.775,7.225,15.321,14.696,22.849,22.179c2.966,2.943,5.513,6.263,6.349,10.552c0.527,2.719-0.784,4.511-3.556,4.575
			c-3.722,0.08-7.449,0.017-11.175,0.017V215.847z"/>
		<path d="M347.954,215.155c-3.596,0-7.191,0.017-10.786-0.006c-2.25-0.017-3.052-0.813-2.651-3.029
			c0.916-5.096-1.007-9.332-3.733-13.357c-3.825-5.662-7.723-11.273-11.559-16.924c-3.911-5.759-7.867-11.479-11.622-17.33
			c-1.998-3.109-3.704-6.418-5.387-9.716c-1.924-3.756-3.727-7.574-5.479-11.41c-0.836-1.827-1.528-3.733-2.13-5.657
			c-0.996-3.16-1.958-6.343-2.765-9.555c-1.214-4.861-2.605-9.704-3.309-14.645c-0.653-4.557-0.933-9.263-0.601-13.849
			c0.452-6.235,1.431-12.447,2.576-18.595c1.031-5.542,2.811-10.884,7.403-14.697c0.481-0.395,1.214-0.481,1.826-0.716
			c0.16,0.658,0.521,1.345,0.435,1.969c-0.521,3.928-1.517,7.832-1.655,11.765c-0.235,6.979-0.258,13.998,0.2,20.96
			c0.24,3.704,1.569,7.368,2.628,10.987c1.059,3.618,2.365,7.162,3.618,10.712c0.819,2.33,1.655,4.66,2.645,6.922
			c1.884,4.282,3.75,8.582,5.868,12.744c1.62,3.177,3.544,6.206,5.468,9.212c2.135,3.337,4.323,6.647,6.676,9.83
			c2.628,3.555,5.353,7.059,8.233,10.408c6.962,8.095,14.187,15.968,21.011,24.178c3.292,3.968,6.498,8.101,8.033,13.265
			c1.271,4.288-0.057,6.47-4.552,6.521C354.882,215.19,351.418,215.155,347.954,215.155"/>
		<path d="M492.375,111.214c-1.403-0.349-3.601-0.733-5.685-1.454c-1.843-0.636-2.032-2.353-0.887-3.91
			c1.065-1.454,2.107-3.006,2.771-4.672c1.723-4.34,3.2-8.777,4.849-13.145c1.414-3.773,2.805-7.557,4.454-11.227
			c0.75-1.655,2.29-2.622,4.334-2.387c1.03,0.12,2.09,0.16,3.12,0.068c5.519-0.481,8.456,3.601,6.441,8.72
			c-1.185,3.011-1.992,6.177-2.897,9.292c-0.927,3.183-1.523,6.493-2.736,9.555c-0.761,1.907-2.239,3.613-3.681,5.13
			C500.264,109.485,495.816,111.242,492.375,111.214"/>
		<path d="M505.185,111.361c1.608-1.717,3.435-1.608,5.135-1.643c2.553-0.051,4.998-0.16,7.426-1.3
			c2.462-1.145,4.065-3.04,4.901-5.324c1.134-3.091,1.614-6.418,2.467-9.624c0.235-0.87,0.796-1.66,1.202-2.485
			c0.813,0.486,1.826,0.802,2.399,1.489c2.548,3.051,5.004,6.172,7.402,9.332c1.603,2.107,3.595,4.134,4.454,6.538
			c1.403,3.91-0.716,10.752-6.424,11.027c-4.214,0.206-8.296-0.126-12.24-1.872c-2.662-1.179-5.49-1.992-8.233-2.988
			C510.95,113.514,508.236,112.495,505.185,111.361"/>
		<path d="M279.554,74.687c-0.441,0.498-0.756,1.174-1.243,1.34c-0.865,0.292-1.832,0.309-2.76,0.332
			c-0.092,0-0.366-1.088-0.275-1.134c1.134-0.578,2.307-1.082,3.504-1.523C278.878,73.662,279.199,74.229,279.554,74.687"/>
		<path d="M272.39,281.633h1.992c1.958,0,3.132-0.469,3.521-1.42c0.389-0.945,0.584-5.485,0.584-13.615v-10.706
			c0-8.422-0.172-13.065-0.504-13.929c-0.338-0.865-1.351-1.3-3.035-1.3h-2.559v-1.987c3.504,0.149,6.962,0.218,10.38,0.218
			c2.845,0,5.427-0.069,7.752-0.218v1.987h-2.445c-1.506,0-2.445,0.183-2.828,0.538c-0.378,0.361-0.601,1.265-0.664,2.719
			c-0.109,2.25-0.16,6.263-0.16,12.034v10.895c0,8.193,0.178,12.704,0.538,13.534c0.361,0.83,1.517,1.248,3.464,1.248h2.096v1.992
			c-2.594-0.149-5.422-0.223-8.479-0.223c-3.567,0-6.784,0.074-9.653,0.223V281.633z"/>
		<path d="M329.484,258.492c0,4.746,0.813,8.874,2.439,12.395c1.62,3.521,3.79,6.16,6.51,7.918c2.719,1.763,5.828,2.639,9.327,2.639
			c3.246,0,6.08-0.744,8.507-2.244c2.422-1.494,4.328-3.721,5.72-6.67c1.391-2.949,2.09-6.555,2.09-10.809
			c0-4.465-0.773-8.285-2.313-11.445c-1.534-3.16-3.641-5.536-6.321-7.128c-2.674-1.591-5.851-2.387-9.515-2.387
			c-3.355,0-6.241,0.704-8.662,2.118c-2.428,1.414-4.328,3.475-5.708,6.195C330.177,251.793,329.484,254.931,329.484,258.492
			 M347.444,284.255c2.422,0.636,4.941,1.483,7.551,2.559c5.462,2.233,9.401,3.349,11.823,3.349c0.824,0,2.067-0.212,3.733-0.636
			v1.643c-2.364,1.225-4.11,2.382-5.25,3.475c-1.832-0.229-3.487-0.538-4.964-0.927c-1.477-0.389-3.721-1.145-6.733-2.261
			c-4.975-1.809-8.319-2.714-10.025-2.714c-0.486,0-0.996,0.103-1.534,0.315c-0.538,0.206-1.878,0.916-4.03,2.112v-2.084
			c3.607-2.422,6.195-4.031,7.752-4.832c-4.763,0-8.828-0.945-12.2-2.828c-3.372-1.884-6.006-4.58-7.901-8.078
			s-2.845-7.598-2.845-12.292c0-6.87,2.233-12.424,6.704-16.661c4.465-4.237,10.42-6.355,17.857-6.355
			c7.288,0,13.008,1.969,17.147,5.897c4.139,3.933,6.212,9.161,6.212,15.693c0,5.015-1.22,9.418-3.653,13.197
			c-2.433,3.784-5.622,6.687-9.561,8.708C354.703,282.99,351.343,283.9,347.444,284.255"/>
		<path d="M426.256,260.818c2.061,2.972,4.62,6.424,7.677,10.363l6.063,7.861c1.071,1.351,1.792,2.118,2.147,2.307
			c0.361,0.189,0.727,0.286,1.105,0.286h0.825v1.987c-1.752-0.149-3.275-0.218-4.58-0.218c-1.202,0-2.467,0.069-3.79,0.218
			l-11.181-15.098c-2.09-2.777-4.317-5.496-6.698-8.147l0.315-1.076c1.22,0.109,2.124,0.16,2.719,0.16
			c3.515,0,6.269-0.904,8.256-2.719c1.992-1.809,2.989-4.231,2.989-7.265c0-2.714-0.847-4.838-2.531-6.361
			c-1.683-1.528-4.116-2.29-7.294-2.29c-2.21,0-4.437,0.406-6.664,1.231c-0.258,3.343-0.384,6.928-0.384,10.741v15.252
			c0,7.437,0.183,11.559,0.538,12.367c0.361,0.813,1.517,1.22,3.475,1.22h2.468v1.987c-3.498-0.149-6.395-0.218-8.691-0.218
			c-1.809,0-5.084,0.069-9.824,0.218v-1.987h2.37c1.809,0,2.885-0.395,3.223-1.185c0.338-0.79,0.504-4.947,0.504-12.464v-15.189
			c0-6.533-0.195-10.185-0.584-10.964c-0.39-0.779-1.661-1.168-3.807-1.168h-1.706v-1.987c3.922,0.143,6.91,0.217,8.971,0.217
			c1.391,0,3.39-0.051,6.006-0.154c3.029-0.109,5.21-0.16,6.538-0.16c3.641,0,6.407,0.384,8.29,1.151
			c1.883,0.773,3.315,1.884,4.294,3.332c0.979,1.454,1.471,3.189,1.471,5.216c0,2.965-1.071,5.588-3.206,7.866
			C433.418,258.414,430.321,259.977,426.256,260.818"/>
		<path d="M489.704,265.873h15.91l-7.947-18.973L489.704,265.873z M506.8,268.461h-18.275l-2.141,5.09
			c-1.408,3.366-2.113,5.427-2.113,6.189c0,0.487,0.126,0.83,0.395,1.042c0.263,0.212,0.927,0.378,2.004,0.504l3.029,0.349v1.987
			c-2.021-0.143-4.294-0.217-6.819-0.217c-3.034,0-5.697,0.074-7.992,0.217v-1.987l0.945-0.034c1.477-0.04,2.434-0.195,2.863-0.458
			c0.429-0.263,0.888-0.905,1.374-1.941c1.494-3.035,3.023-6.309,4.58-9.824l8.685-19.678c2.319-5.221,3.893-9.011,4.74-11.37h2.147
			l15.979,37.174c1.076,2.531,1.792,4.053,2.147,4.569c0.361,0.515,0.773,0.882,1.237,1.105c0.464,0.218,1.506,0.372,3.126,0.458
			v1.987c-2.737-0.143-5.347-0.217-7.832-0.217c-2.319,0-5.404,0.074-9.258,0.217v-1.987l3.126-0.189
			c1.116-0.086,1.78-0.2,1.992-0.349c0.315-0.229,0.475-0.527,0.475-0.882c0-0.384-0.315-1.368-0.951-2.971L506.8,268.461z"/>
	</g>
	<g>
		<path d="M219.131,320.894v15.225h7.036c0.824,0,1.528-0.078,2.111-0.234c0.583-0.156,1.073-0.434,1.472-0.832
			c0.397-0.397,0.71-0.938,0.938-1.62c0.227-0.683,0.412-1.55,0.554-2.602h1.066v13.092h-1.066
			c-0.028-0.966-0.128-1.791-0.298-2.474c-0.17-0.682-0.448-1.243-0.832-1.685c-0.384-0.44-0.896-0.76-1.535-0.959
			s-1.443-0.299-2.41-0.299h-7.036v12.153c0,0.911,0.014,1.649,0.042,2.218c0.028,0.569,0.1,1.038,0.213,1.407
			c0.113,0.37,0.277,0.661,0.49,0.874c0.213,0.214,0.491,0.42,0.832,0.619c0.795,0.455,1.663,0.682,2.601,0.682h1.407v1.066h-16.631
			v-1.066h1.365c0.682,0,1.286-0.049,1.813-0.149c0.525-0.099,0.959-0.341,1.301-0.725c0.341-0.384,0.604-0.966,0.789-1.748
			c0.185-0.782,0.277-1.841,0.277-3.178v-25.032c0-0.881-0.021-1.612-0.064-2.195s-0.114-1.06-0.213-1.429s-0.249-0.668-0.448-0.896
			c-0.199-0.228-0.469-0.427-0.81-0.598c-0.426-0.227-0.853-0.397-1.279-0.512c-0.427-0.113-0.882-0.17-1.365-0.17h-1.365v-1.066
			h28.828v8.528h-0.64c-0.37-1.393-0.789-2.508-1.258-3.347c-0.469-0.839-1.038-1.485-1.706-1.94
			c-0.668-0.455-1.457-0.753-2.367-0.896c-0.91-0.143-2.004-0.214-3.284-0.214H219.131z"/>
		<path d="M261.093,317.909c2.474,0,4.833,0.512,7.079,1.535c2.245,1.023,4.222,2.431,5.927,4.222
			c1.706,1.791,3.063,3.901,4.073,6.332c1.009,2.431,1.514,5.068,1.514,7.911c0,2.929-0.505,5.644-1.514,8.145
			c-1.01,2.502-2.374,4.67-4.094,6.504c-1.721,1.833-3.739,3.27-6.056,4.307c-2.317,1.038-4.783,1.557-7.399,1.557
			c-2.644,0-5.117-0.498-7.42-1.492c-2.303-0.995-4.3-2.396-5.991-4.201c-1.692-1.805-3.028-3.958-4.009-6.46
			s-1.471-5.26-1.471-8.273c0-2.786,0.49-5.401,1.471-7.847c0.981-2.444,2.331-4.569,4.051-6.375c1.72-1.806,3.759-3.233,6.12-4.286
			C255.734,318.436,258.306,317.909,261.093,317.909z M260.539,319.998c-1.962,0-3.704,0.42-5.224,1.258
			c-1.521,0.839-2.8,2.033-3.838,3.583c-1.038,1.55-1.827,3.426-2.367,5.629c-0.541,2.203-0.81,4.684-0.81,7.441
			c0,2.729,0.262,5.224,0.789,7.483c0.526,2.261,1.308,4.208,2.346,5.843c1.037,1.635,2.324,2.899,3.859,3.795
			s3.297,1.344,5.288,1.344c1.791,0,3.447-0.341,4.968-1.023c1.521-0.683,2.85-1.741,3.987-3.177
			c1.137-1.436,2.026-3.27,2.666-5.501c0.64-2.232,0.959-4.897,0.959-7.996c0-2.928-0.263-5.551-0.789-7.868
			c-0.526-2.316-1.322-4.278-2.388-5.885c-1.066-1.605-2.388-2.829-3.966-3.668C264.44,320.418,262.613,319.998,260.539,319.998z"/>
		<path d="M309.877,319.828v-1.066h13.689v1.066h-1.45c-1.479,0-2.644,0.64-3.497,1.919c-0.398,0.568-0.597,1.947-0.597,4.136
			v15.693c0,3.811-0.398,6.838-1.194,9.083c-0.398,1.081-0.967,2.09-1.706,3.028c-0.74,0.938-1.678,1.756-2.815,2.452
			c-1.137,0.696-2.466,1.251-3.987,1.663c-1.521,0.412-3.262,0.618-5.224,0.618c-2.132,0-3.995-0.186-5.586-0.555
			c-1.592-0.369-2.957-0.909-4.094-1.62c-1.137-0.71-2.076-1.563-2.814-2.559c-0.74-0.995-1.336-2.117-1.791-3.369
			c-0.625-1.733-0.938-4.918-0.938-9.552v-15.14c0-1.193-0.079-2.167-0.235-2.921c-0.156-0.753-0.405-1.343-0.746-1.77
			s-0.775-0.718-1.301-0.874c-0.526-0.156-1.145-0.234-1.855-0.234h-1.493v-1.066h16.759v1.066h-1.493
			c-0.682,0-1.279,0.071-1.791,0.213c-0.512,0.143-0.938,0.42-1.279,0.831c-0.341,0.413-0.604,0.996-0.789,1.749
			c-0.185,0.754-0.277,1.756-0.277,3.006v16.888c0,1.706,0.113,3.369,0.341,4.989s0.696,3.063,1.407,4.328
			c0.71,1.266,1.728,2.275,3.049,3.028s3.077,1.13,5.267,1.13c1.25,0,2.458-0.149,3.625-0.448c1.166-0.298,2.224-0.703,3.177-1.215
			c0.952-0.512,1.784-1.13,2.495-1.855c0.71-0.725,1.237-1.514,1.578-2.366c0.739-1.678,1.109-4.605,1.109-8.785v-15.693
			c0-2.388-0.271-3.895-0.81-4.52c-0.74-0.854-1.834-1.279-3.284-1.279H309.877z"/>
		<path d="M323.438,318.762h10.49l23.71,29.083v-22.346c0-1.307-0.093-2.345-0.277-3.112c-0.185-0.768-0.455-1.336-0.81-1.706
			c-0.356-0.369-0.789-0.604-1.301-0.704c-0.512-0.099-1.095-0.148-1.749-0.148h-1.365v-1.066h13.519v1.066h-1.407
			c-0.683,0-1.28,0.057-1.792,0.17c-0.512,0.114-0.938,0.37-1.279,0.768c-0.341,0.398-0.597,0.967-0.768,1.706
			c-0.17,0.739-0.256,1.748-0.256,3.027v32.666h-1.023l-25.543-31.216v23.881c0,1.337,0.092,2.382,0.277,3.135
			c0.185,0.753,0.448,1.315,0.789,1.685s0.768,0.597,1.279,0.682c0.512,0.086,1.094,0.128,1.749,0.128h1.365v1.066H325.57v-1.066
			h1.364c0.683,0,1.279-0.057,1.792-0.17c0.512-0.113,0.945-0.363,1.3-0.747s0.619-0.944,0.789-1.684s0.256-1.749,0.256-3.028
			v-26.951c-0.569-0.683-1.045-1.222-1.429-1.62s-0.746-0.726-1.087-0.981s-0.711-0.469-1.109-0.64
			c-0.398-0.17-0.896-0.354-1.492-0.554c-0.569-0.171-1.407-0.256-2.516-0.256V318.762z"/>
		<path d="M367.447,357.525v-1.066h1.492c0.654,0,1.237-0.057,1.749-0.17s0.938-0.369,1.279-0.768
			c0.341-0.398,0.604-0.981,0.789-1.749c0.185-0.768,0.277-1.805,0.277-3.113v-25.032c0-2.388-0.271-3.895-0.811-4.52
			c-0.739-0.854-1.833-1.279-3.284-1.279h-1.492v-1.066h15.778c5.742,0,10.149,0.668,13.219,2.004
			c3.042,1.337,5.473,3.525,7.292,6.567c1.848,3.1,2.772,6.639,2.772,10.618c0,2.872-0.463,5.502-1.386,7.89
			c-0.925,2.388-2.303,4.449-4.137,6.184c-1.834,1.734-4.102,3.085-6.802,4.051c-2.701,0.967-5.842,1.45-9.424,1.45H367.447z
			 M378.534,354.711c2.359,0.54,4.377,0.811,6.055,0.811c2.189,0,4.222-0.405,6.098-1.216c1.876-0.811,3.503-1.962,4.883-3.454
			c1.378-1.492,2.459-3.305,3.241-5.438c0.781-2.132,1.172-4.52,1.172-7.164c0-2.672-0.384-5.081-1.151-7.229
			c-0.768-2.146-1.848-3.966-3.241-5.458c-1.394-1.492-3.042-2.637-4.947-3.433c-1.905-0.796-3.995-1.194-6.269-1.194
			c-1.678,0-3.625,0.284-5.842,0.853V354.711z"/>
		<path d="M435.506,344.562h-15.01l-2.645,6.098c-0.625,1.508-0.938,2.631-0.938,3.369c0,0.313,0.049,0.598,0.148,0.854
			s0.313,0.49,0.641,0.703c0.326,0.213,0.781,0.398,1.363,0.555c0.584,0.156,1.357,0.263,2.324,0.319v1.066h-12.195v-1.066
			c0.966-0.142,1.748-0.354,2.346-0.64c0.596-0.283,1.107-0.675,1.535-1.173c0.426-0.497,0.816-1.144,1.172-1.939
			s0.789-1.777,1.301-2.943l13.646-31.854h0.98l13.477,32.196c0.539,1.336,1.045,2.409,1.514,3.22
			c0.469,0.81,0.951,1.443,1.449,1.897c0.498,0.455,1.037,0.768,1.621,0.938c0.582,0.17,1.285,0.271,2.109,0.298v1.066h-15.309
			v-1.066c1.535-0.057,2.58-0.305,3.135-0.746c0.555-0.44,0.832-0.974,0.832-1.599c-0.029-0.824-0.412-2.16-1.152-4.009
			L435.506,344.562z M434.695,342.43l-6.566-15.651l-6.738,15.651H434.695z"/>
		<path d="M484.846,318.762v9.126h-0.64c-0.313-2.445-1.031-4.172-2.153-5.182c-1.124-1.009-2.779-1.514-4.969-1.514h-5.458v29.638
			c0,1.309,0.092,2.339,0.277,3.092c0.185,0.754,0.447,1.315,0.789,1.685c0.341,0.37,0.768,0.604,1.279,0.703
			c0.512,0.101,1.108,0.149,1.791,0.149h1.321v1.066h-16.417v-1.066h1.364c0.683,0,1.279-0.057,1.791-0.17s0.938-0.363,1.279-0.747
			s0.604-0.944,0.789-1.684c0.185-0.739,0.277-1.749,0.277-3.028v-29.638h-4.648c-1.166,0-2.196,0.093-3.092,0.277
			s-1.671,0.526-2.324,1.023c-0.654,0.497-1.173,1.18-1.557,2.047s-0.618,1.982-0.703,3.348h-1.066v-9.126H484.846z"/>
		<path d="M504.76,356.459v1.066h-16.588v-1.066h1.364c0.683,0,1.286-0.049,1.813-0.149c0.525-0.099,0.959-0.341,1.301-0.725
			c0.341-0.384,0.604-0.966,0.789-1.748c0.185-0.782,0.276-1.841,0.276-3.178v-25.032c0-0.881-0.021-1.612-0.063-2.195
			s-0.114-1.06-0.213-1.429c-0.101-0.369-0.25-0.661-0.448-0.875c-0.199-0.213-0.469-0.419-0.811-0.618
			c-0.853-0.454-1.734-0.682-2.644-0.682h-1.364v-1.066h16.588v1.066h-1.364c-0.683,0-1.287,0.057-1.813,0.17
			c-0.526,0.114-0.959,0.362-1.301,0.746c-0.341,0.384-0.604,0.967-0.789,1.749s-0.276,1.827-0.276,3.134v25.032
			c0,0.911,0.014,1.649,0.042,2.218c0.028,0.569,0.1,1.038,0.214,1.407c0.113,0.37,0.276,0.661,0.49,0.874
			c0.213,0.214,0.49,0.42,0.831,0.619c0.796,0.455,1.663,0.682,2.602,0.682H504.76z"/>
		<path d="M527.617,317.909c2.474,0,4.833,0.512,7.079,1.535c2.245,1.023,4.222,2.431,5.928,4.222
			c1.705,1.791,3.063,3.901,4.072,6.332c1.009,2.431,1.514,5.068,1.514,7.911c0,2.929-0.505,5.644-1.514,8.145
			c-1.01,2.502-2.374,4.67-4.094,6.504c-1.721,1.833-3.739,3.27-6.056,4.307c-2.317,1.038-4.783,1.557-7.398,1.557
			c-2.645,0-5.117-0.498-7.42-1.492c-2.303-0.995-4.301-2.396-5.992-4.201c-1.691-1.805-3.027-3.958-4.008-6.46
			c-0.981-2.502-1.472-5.26-1.472-8.273c0-2.786,0.49-5.401,1.472-7.847c0.98-2.444,2.33-4.569,4.051-6.375
			c1.72-1.806,3.76-3.233,6.119-4.286C522.258,318.436,524.831,317.909,527.617,317.909z M527.063,319.998
			c-1.961,0-3.703,0.42-5.224,1.258c-1.521,0.839-2.801,2.033-3.838,3.583c-1.038,1.55-1.827,3.426-2.366,5.629
			c-0.541,2.203-0.811,4.684-0.811,7.441c0,2.729,0.263,5.224,0.789,7.483c0.525,2.261,1.307,4.208,2.345,5.843
			s2.324,2.899,3.859,3.795s3.298,1.344,5.288,1.344c1.791,0,3.447-0.341,4.968-1.023s2.851-1.741,3.987-3.177
			s2.025-3.27,2.665-5.501c0.64-2.232,0.96-4.897,0.96-7.996c0-2.928-0.264-5.551-0.789-7.868c-0.526-2.316-1.322-4.278-2.388-5.885
			c-1.066-1.605-2.389-2.829-3.966-3.668C530.965,320.418,529.138,319.998,527.063,319.998z"/>
		<path d="M547.703,318.762h10.49l23.71,29.083v-22.346c0-1.307-0.093-2.345-0.277-3.112s-0.455-1.336-0.81-1.706
			c-0.356-0.369-0.789-0.604-1.301-0.704c-0.512-0.099-1.095-0.148-1.748-0.148h-1.365v-1.066h13.519v1.066h-1.407
			c-0.683,0-1.279,0.057-1.791,0.17c-0.512,0.114-0.938,0.37-1.279,0.768c-0.342,0.398-0.598,0.967-0.768,1.706
			c-0.171,0.739-0.256,1.748-0.256,3.027v32.666h-1.023l-25.544-31.216v23.881c0,1.337,0.092,2.382,0.277,3.135
			c0.185,0.753,0.447,1.315,0.789,1.685c0.341,0.369,0.768,0.597,1.279,0.682c0.512,0.086,1.094,0.128,1.748,0.128h1.364v1.066
			h-13.476v-1.066h1.365c0.682,0,1.279-0.057,1.791-0.17s0.944-0.363,1.301-0.747c0.354-0.384,0.618-0.944,0.788-1.684
			c0.171-0.739,0.256-1.749,0.256-3.028v-26.951c-0.568-0.683-1.044-1.222-1.428-1.62s-0.747-0.726-1.088-0.981
			s-0.711-0.469-1.108-0.64c-0.398-0.17-0.896-0.354-1.493-0.554c-0.568-0.171-1.407-0.256-2.516-0.256V318.762z"/>
	</g>
</g>
</svg>
