<?xml version="1.0" encoding="utf-8"?>
<!-- Generator: Adobe Illustrator 17.0.0, SVG Export Plug-In . SVG Version: 6.00 Build 0)  -->
<!DOCTYPE svg PUBLIC "-//W3C//DTD SVG 1.1//EN" "http://www.w3.org/Graphics/SVG/1.1/DTD/svg11.dtd">
<svg version="1.1" id="Layer_1" xmlns="http://www.w3.org/2000/svg" xmlns:xlink="http://www.w3.org/1999/xlink" x="0px" y="0px"
	 width="800px" height="400px" viewBox="0 0 800 400" enable-background="new 0 0 800 400" xml:space="preserve">
<title>logo-spotify</title>
<rect fill="#FFFFFF" fill-opacity="0" width="800" height="400"/>
<g>
	<path fill="#6A361B" d="M401.652,137.863c0.937,0,1.681,0.278,2.237,0.831c0.554,0.555,0.915,1.3,1.087,2.237l13.278,62.499
		c2.911-11.759,5.458-23.773,7.643-36.043c2.184-12.27,3.748-24.496,4.691-36.682h9.969c1.959,0,2.854,1.067,2.684,3.195
		c-0.086,1.194-0.194,2.387-0.321,3.579c-0.128,1.194-0.278,2.6-0.45,4.218c-0.685,5.369-1.562,11.27-2.632,17.702
		c-1.07,6.435-2.335,13.059-3.79,19.875c-1.456,6.818-3.083,13.634-4.881,20.45c-1.798,6.818-3.724,13.336-5.779,19.555h-11.215
		c-1.021,0-1.786-0.255-2.295-0.767c-0.511-0.511-0.893-1.32-1.146-2.428l-13.183-60.199l-13.884,63.394h-10.948
		c-1.202,0-2.041-0.212-2.513-0.639c-0.473-0.425-0.925-1.15-1.352-2.173c-1.961-5.879-3.878-12.397-5.751-19.555
		c-1.875-7.158-3.579-14.549-5.112-22.176c-1.534-7.625-2.874-15.209-4.025-22.75c-1.15-7.541-2.025-14.635-2.62-21.281h10.863
		c1.789,0,2.771,1.067,2.942,3.195c0.94,11.248,2.461,22.667,4.559,34.254c2.099,11.589,4.52,23.306,7.261,35.148l14.331-65.44
		h10.352L401.652,137.863L401.652,137.863z"/>
	<path fill="#6A361B" d="M479.283,220.813c-9.628,0-16.595-2.726-20.897-8.181c-4.305-5.452-6.456-14.101-6.456-25.946
		c0-11.758,2.151-20.364,6.456-25.817c4.302-5.452,11.268-8.181,20.897-8.181c9.628,0,16.595,2.729,20.898,8.181
		c4.3,5.453,6.454,14.059,6.454,25.817c0,11.844-2.154,20.494-6.454,25.946C495.878,218.087,488.911,220.813,479.283,220.813z
		 M493.599,186.687c0-4.601-0.279-8.435-0.832-11.503c-0.556-3.067-1.406-5.516-2.556-7.35c-1.151-1.831-2.641-3.131-4.473-3.898
		c-1.835-0.767-3.985-1.151-6.456-1.151c-2.472,0-4.623,0.384-6.454,1.151c-1.833,0.766-3.322,2.067-4.473,3.898
		c-1.151,1.834-2.004,4.282-2.556,7.35c-0.556,3.067-0.832,6.902-0.832,11.503c0,4.687,0.276,8.585,0.832,11.695
		c0.552,3.112,1.405,5.582,2.556,7.413c1.151,1.834,2.64,3.112,4.473,3.834c1.832,0.725,3.983,1.086,6.454,1.086
		c2.47,0,4.621-0.361,6.456-1.086c1.832-0.723,3.322-2.001,4.473-3.834c1.149-1.831,2-4.301,2.556-7.413
		C493.32,195.272,493.599,191.374,493.599,186.687z"/>
	<path fill="#6A361B" d="M546.511,220.813c-9.63,0-16.596-2.726-20.898-8.181c-4.303-5.452-6.454-14.101-6.454-25.946
		c0-11.758,2.151-20.364,6.454-25.817c4.302-5.452,11.268-8.181,20.898-8.181c9.627,0,16.593,2.729,20.898,8.181
		c4.3,5.453,6.453,14.059,6.453,25.817c0,11.844-2.152,20.494-6.453,25.946C563.104,218.087,556.138,220.813,546.511,220.813z
		 M560.826,186.687c0-4.601-0.279-8.435-0.83-11.503c-0.556-3.067-1.406-5.516-2.557-7.35c-1.149-1.831-2.641-3.131-4.473-3.898
		c-1.833-0.767-3.984-1.151-6.454-1.151c-2.472,0-4.623,0.384-6.454,1.151c-1.834,0.766-3.324,2.067-4.473,3.898
		c-1.151,1.834-2.004,4.282-2.557,7.35c-0.554,3.067-0.83,6.902-0.83,11.503c0,4.687,0.276,8.585,0.83,11.695
		c0.553,3.112,1.406,5.582,2.557,7.413c1.149,1.834,2.639,3.112,4.473,3.834c1.832,0.725,3.983,1.086,6.454,1.086
		c2.47,0,4.621-0.361,6.454-1.086c1.832-0.723,3.324-2.001,4.473-3.834c1.151-1.831,2.001-4.301,2.557-7.413
		C560.547,195.272,560.826,191.374,560.826,186.687z"/>
	<path fill="#6A361B" d="M608.241,220.429c-7.669,0-13.228-2.832-16.679-8.499c-3.451-5.666-5.175-13.868-5.175-24.604
		c0-12.27,2.107-21.067,6.326-26.393c4.218-5.324,10.586-7.988,19.107-7.988c3.579,0,6.54,0.341,8.884,1.022
		c2.343,0.683,4.109,1.364,5.305,2.045V127.51h9.84c0.938,0,1.682,0.255,2.238,0.767c0.552,0.511,0.83,1.236,0.83,2.173v88.829
		h-7.797c-0.938,0-1.726-0.212-2.364-0.639c-0.64-0.425-1.045-1.278-1.215-2.556l-0.511-3.962c-1.961,2.131-4.453,4.048-7.477,5.752
		C616.528,219.577,612.758,220.429,608.241,220.429z M626.009,165.087c-1.62-0.681-3.347-1.234-5.177-1.662
		c-1.833-0.425-3.856-0.639-6.071-0.639c-2.984,0-5.476,0.427-7.477,1.279c-2.003,0.853-3.579,2.237-4.729,4.154
		c-1.151,1.917-1.962,4.39-2.43,7.413c-0.469,3.026-0.702,6.71-0.702,11.056c0,8.096,0.894,13.976,2.685,17.638
		c1.788,3.665,5.112,5.496,9.968,5.496c3.408,0,6.241-0.66,8.501-1.981c2.257-1.321,4.068-2.663,5.432-4.026V165.087z"/>
	<path fill="#6A361B" d="M665.246,191.544c0.17,3.409,0.553,6.307,1.151,8.691c0.595,2.387,1.596,4.326,3.003,5.816
		c1.406,1.491,3.302,2.578,5.688,3.259c2.383,0.683,5.451,1.022,9.202,1.022c3.324,0,6.347-0.17,9.074-0.511
		c2.729-0.34,4.604-0.512,5.625-0.512c1.959,0,2.94,0.938,2.94,2.812v5.368c-2.046,0.853-4.839,1.598-8.374,2.237
		c-3.535,0.639-7.604,0.959-12.204,0.959c-4.858,0-9.075-0.596-12.654-1.789c-3.579-1.192-6.54-3.132-8.882-5.816
		c-2.345-2.684-4.07-6.177-5.176-10.481c-1.109-4.302-1.663-9.522-1.663-15.656c0-6.136,0.554-11.376,1.663-15.721
		c1.106-4.345,2.789-7.903,5.048-10.673c2.257-2.768,5.048-4.771,8.371-6.007c3.324-1.234,7.199-1.853,11.631-1.853
		c4.94,0,8.99,0.703,12.142,2.109c3.152,1.406,5.622,3.303,7.413,5.688c1.788,2.387,3.025,5.176,3.707,8.372
		c0.679,3.195,1.022,6.626,1.022,10.289c0,2.472-0.128,4.857-0.383,7.157s-0.598,4.048-1.022,5.24L665.246,191.544L665.246,191.544z
		 M692.213,182.469c0.084-0.85,0.128-1.49,0.128-1.917c0-0.425,0-0.978,0-1.661c0-5.452-0.83-9.564-2.492-12.334
		c-1.662-2.768-4.922-4.154-9.778-4.154c-2.897,0-5.283,0.47-7.158,1.406c-1.875,0.939-3.367,2.259-4.473,3.962
		c-1.109,1.706-1.897,3.815-2.364,6.327c-0.469,2.514-0.747,5.304-0.83,8.371H692.213z"/>
	<path fill="#6A361B" d="M747.427,153.839c1.702,0,2.853,0.278,3.45,0.831c0.595,0.555,0.896,1.3,0.896,2.237v8.563
		c-0.598-0.083-1.194-0.128-1.79-0.128s-1.151,0-1.662,0c-3.495,0-6.668,0.555-9.522,1.662c-2.855,1.108-5.518,2.983-7.988,5.623
		v46.651h-9.842c-2.045,0-3.067-0.978-3.067-2.94v-62.116h7.797c1.106,0,1.917,0.236,2.428,0.703c0.511,0.469,0.894,1.3,1.151,2.492
		l0.511,5.624c1.959-2.385,4.473-4.516,7.541-6.391C740.397,154.778,743.763,153.839,747.427,153.839z"/>
</g>
<path fill="#6A361B" d="M216.855,179.694c0,0-6.919,5.739-4.496-6.608c9.844-50.181-48.722-94.149-48.722-94.149
	s77.204,59.053,62.018,93.447C223.166,178.023,216.855,179.694,216.855,179.694z"/>
<g>
	<path fill="#6A361B" d="M114.027,257.213c0.294-2.335,0.409-4.659,2.203-11.125c1.793-6.466,3.579-13.051,5.359-19.754
		c1.779-6.702,3.52-13.394,5.222-20.071c1.701-6.679,3.339-13.284,4.91-19.817c1.573-6.532,3.048-12.862,4.427-18.988
		c0.155-0.72,0.597-1.26,1.327-1.619c0.729-0.358,1.527-0.564,2.394-0.615c0.866-0.051,1.661,0.021,2.383,0.216
		c1.254,3.878,2.691,8.486,4.309,13.823c1.617,5.337,3.32,11.124,5.109,17.361c1.789,6.235,3.646,12.804,5.573,19.704
		c1.925,6.9,3.837,13.89,5.736,20.968c1.897,7.08,3.743,14.122,5.537,21.129c1.794,7.006,6.463,21.104,8.024,27.491l-2.696-7.417
		c2.488-6.073,1.225-3.05,3.667-9.575c2.441-6.524,4.765-13.032,6.972-19.523c2.206-6.49,4.242-12.873,6.106-19.146
		s3.452-12.193,4.765-17.763c1.312-5.569,2.297-10.684,2.952-15.345c0.654-4.661,0.884-8.645,0.69-11.953
		c-0.113-1.929-0.396-3.868-0.846-5.818c-0.45-1.948-1.061-3.77-1.832-5.463s-1.721-3.218-2.846-4.574
		c-1.127-1.356-2.423-2.406-3.89-3.15l7.627-8.592c0.78-0.164,1.562-0.309,2.345-0.434c0.782-0.124,1.568-0.211,2.356-0.257
		c2.204-0.129,4.328,0.023,6.368,0.456c2.04,0.434,3.863,1.195,5.468,2.286c1.605,1.091,2.915,2.555,3.932,4.392
		c1.016,1.837,1.602,4.075,1.757,6.712c0.118,2.008-2.549,12.095-2.461,15.463c0.106,4.057-1.307,7.179-2.373,11.547
		c-1.068,4.37-2.376,9.177-3.924,14.425c-1.549,5.246-3.287,10.812-5.213,16.693c-1.927,5.882-4.015,12.02-6.267,18.414
		c-2.252,6.395-4.616,12.895-7.092,19.5c-2.478,6.606-5.029,13.255-7.66,19.949c-2.628,6.694-5.293,13.3-7.992,19.819l-9.992,1.417
		l-1.251-0.104c-1.568-7.177-3.096-13.864-4.585-20.059c-1.491-6.195-2.959-12.035-4.408-17.521
		c-1.447-5.486-2.86-10.697-4.237-15.634c-1.377-4.937-2.714-9.718-4.013-14.344c-1.841-6.45-3.495-12.408-4.961-17.873
		c-1.467-5.465-2.98-10.701-4.538-15.706l-0.413,0.024c-1.24,5.802-2.512,11.399-3.814,16.789c-1.304,5.39-2.65,10.725-4.038,16.002
		c-1.39,5.277-2.855,10.598-4.396,15.963c-1.542,5.366-3.171,10.924-4.888,16.674c-1.717,5.751-3.545,11.785-5.486,18.102
		c-1.939,6.318-4.004,13.056-6.191,20.217l-10.11,1.424l-1.251-0.104c-1.95-32.559-7.458-76.81-13.076-96.137
		c-5.62-19.325-9.978-32.809-13.074-40.451c-0.834-2.085-1.688-3.842-2.562-5.272c-0.875-1.431-1.871-2.587-2.989-3.47
		c-1.119-0.883-2.409-1.498-3.872-1.847c-1.463-0.348-3.197-0.464-5.206-0.346c-1.299,0.076-2.722,0.249-4.267,0.517
		c-1.544,0.269-3.253,0.617-5.124,1.042l2.77-10.811c6.015-1.854,11.016-3.304,15.006-4.348c3.988-1.044,7.301-1.644,9.939-1.799
		c2.086-0.123,3.827,0.062,5.218,0.553c1.393,0.491,2.598,1.339,3.617,2.543c1.019,1.205,1.942,2.79,2.769,4.756
		c0.827,1.966,1.718,4.364,2.674,7.192c1.382,4.028,3.056,9.135,5.018,15.321c1.965,6.188,4.161,13.496,6.593,21.927
		c2.431,8.432,4.158,17.786,6.103,28.69C109.613,242.195,110.809,244.126,114.027,257.213"/>
</g>
<g>
	<path fill="#2EBD59" d="M302.878,268.512c-0.368,5.668-2.419,11.386-6.153,17.15c-3.736,5.766-9.43,11.008-17.088,15.728
		c-2.387,1.428-5.273,2.959-8.658,4.596c-3.387,1.638-7.051,3.277-10.991,4.919c-3.942,1.641-8.076,3.211-12.4,4.708
		c-4.327,1.498-8.678,2.775-13.055,3.836c-4.379,1.059-8.641,1.87-12.786,2.431c-4.147,0.561-8.033,0.723-11.652,0.488
		c-1.812-0.118-3.356-0.357-4.637-0.716c-1.281-0.361-2.45-0.93-3.506-1.71c-1.058-0.78-2.056-1.835-2.996-3.159
		c-0.942-1.326-1.941-2.972-2.999-4.938c-1.981,1.294-4.038,2.21-6.166,2.742c-2.13,0.532-4.257,0.731-6.382,0.593l-3.306-0.215
		c-0.631-0.041-1.207-0.297-1.729-0.764c-0.523-0.469-0.982-1.031-1.372-1.69c-0.392-0.658-0.682-1.367-0.869-2.132
		c-0.188-0.763-0.258-1.499-0.212-2.207c0.261-4.015,1.08-7.815,2.46-11.401c1.378-3.586,2.934-7.141,4.665-10.665
		c2.637-6.547,5.337-13.426,8.099-20.64c2.76-7.212,5.444-14.448,8.05-21.71c2.606-7.26,5.105-14.431,7.503-21.509
		c2.396-7.078,4.631-13.79,6.703-20.138l2.332-13.482c0.015-0.236,0.018-0.906,0.012-2.015c-0.007-1.107-0.028-2.314-0.061-3.621
		c-0.034-1.307-0.056-2.512-0.061-3.621l-0.018-1.543l0.721-1.969l-0.126,0.11c0.485-1.391,3.005-2.968,3.832-4.734
		c0.826-1.764,1.801-3.399,2.927-4.909c1.124-1.508,2.331-2.754,3.622-3.737c1.289-0.983,2.642-1.429,4.059-1.337
		c1.338,0.087,3.044,0.298,5.117,0.629c2.072,0.332,3.936,0.552,5.59,0.659c0.786,0.051,1.556,0.062,2.31,0.031
		c0.753-0.029,1.71-0.165,2.872-0.406c1.16-0.239,2.687-0.596,4.575-1.067c1.887-0.47,4.36-1.12,7.419-1.949
		c4.589-1.283,8.788-2.334,12.596-3.154c3.807-0.82,7.405-1.456,10.796-1.908c3.389-0.45,6.668-0.733,9.837-0.843
		c3.168-0.109,6.407-0.058,9.713,0.156c4.172,0.271,8.181,0.928,12.026,1.967c3.845,1.041,7.226,2.544,10.142,4.512
		c2.914,1.968,5.184,4.448,6.809,7.438c1.624,2.992,2.303,6.534,2.037,10.626c-0.455,7.007-2.714,13.184-6.776,18.532
		c-4.064,5.35-9.635,10.206-16.716,14.566c-7.083,4.362-15.5,8.302-25.253,11.818c-9.755,3.517-20.588,6.904-32.497,10.162
		c9.195,2.02,17.098,4.213,23.703,6.579c6.605,2.367,12.026,4.99,16.267,7.874c4.239,2.884,7.315,6.048,9.225,9.492
		C302.337,260.414,303.154,264.261,302.878,268.512z M263.437,255.042c-0.777-0.208-2.197-0.576-4.256-1.106
		c-2.061-0.529-4.474-1.121-7.236-1.774c-2.764-0.654-5.743-1.34-8.937-2.063c-3.196-0.721-6.233-1.431-9.11-2.133
		c-2.88-0.701-5.504-1.365-7.874-1.994c-2.372-0.628-4.096-1.135-5.178-1.522c-3.622,9.488-6.839,18.587-9.658,27.297
		s-5.661,17.478-8.526,26.304l7.739,1.333c1.8,0.276,3.385,0.516,4.755,0.724c1.368,0.207,2.173,0.319,2.409,0.334
		c3.168-0.109,6.672-0.495,10.51-1.155c3.837-0.658,7.826-1.547,11.971-2.661c4.143-1.113,8.36-2.461,12.653-4.04
		c4.292-1.577,8.515-3.301,12.667-5.165c1.555-0.848,3.205-1.885,4.945-3.118c1.74-1.231,3.33-2.61,4.775-4.137
		c1.443-1.525,2.655-3.166,3.64-4.922c0.983-1.754,1.537-3.576,1.659-5.465c0.204-3.147-1.271-5.991-4.426-8.528
		C272.804,258.715,268.628,256.644,263.437,255.042z M227.904,225.225c4.5-1.131,9.252-2.5,14.259-4.114
		c5.005-1.611,10.16-3.39,15.465-5.34c5.303-1.948,10.696-4.028,16.176-6.242c5.48-2.212,10.941-4.448,16.384-6.703l-0.118-0.008
		c1.956-0.899,3.905-2.018,5.85-3.355c1.943-1.336,3.698-2.802,5.266-4.401c1.566-1.598,2.862-3.292,3.887-5.083
		c1.024-1.79,1.597-3.59,1.714-5.402c0.077-1.181-0.124-2.38-0.596-3.596c-0.475-1.217-1.271-2.335-2.391-3.357
		c-1.119-1.021-2.626-1.87-4.518-2.546c-1.894-0.675-4.256-1.106-7.09-1.29c-3.937-0.256-8.415-0.052-13.439,0.61
		c-5.023,0.663-9.906,1.591-14.647,2.784c-4.743,1.194-8.983,2.579-12.72,4.154c-3.739,1.577-6.252,3.151-7.54,4.728
		c-0.262,0.38-0.654,1.223-1.172,2.533c-0.52,1.312-1.109,2.756-1.764,4.332c-0.656,1.578-1.328,3.097-2.015,4.553
		c-0.688,1.458-1.331,2.522-1.927,3.195c-0.21,0.777-0.601,1.958-1.178,3.54c-0.577,1.583-1.273,3.456-2.084,5.616
		c-0.813,2.161-1.719,4.554-2.719,7.175C229.986,219.629,228.958,222.37,227.904,225.225z"/>
</g>
<path fill="#2EBD59" d="M219.44,158.407c0,0,7.75-15.573,13.692-21.351c0.108-0.105,3.726-3.714,3.726-3.714
	s29.998,15.007,48.323-2.883c2.951-2.881,8.268-7.402,11.11-11.346c15.863-22.019,33.246-32.993,33.246-32.993
	c-31.399-12.092-37.01-11.124-47.298-11.951c-11.488-0.923-28.538,3.549-38.099,10.068c-4.511,3.076-12.603,11.662-14.993,16.949
	c-4.721,10.444-2.608,19.774-2.608,19.774s8.402-14.776,22.671-21.223c20.785-9.39,45.016-8.221,45.016-8.221
	s-22.082,1.662-38.683,12.075C225.886,122.191,219.44,158.407,219.44,158.407z"/>
<g>
	<path fill="#2EBD59" stroke="#2EBD59" stroke-width="2" stroke-miterlimit="10" d="M336.657,285.303l8.789-49.922h7.313
		l-8.789,49.922H336.657z M343.266,285.303l1.195-6.68h5.695c5.32,0,9.234-0.732,11.742-2.197c2.508-1.464,3.762-3.756,3.762-6.873
		c0-2.297-0.944-4.09-2.83-5.379c-1.887-1.289-4.506-1.934-7.857-1.934h-7.453l-0.387-2.813h11.813
		c4.477,0,7.968,0.973,10.477,2.918c2.508,1.946,3.762,4.653,3.762,8.121c0,5.086-1.811,8.83-5.432,11.232
		c-3.621,2.403-9.252,3.604-16.893,3.604L343.266,285.303L343.266,285.303z M344.321,258.409l1.16-2.848h9.914
		c3.539,0,6.223-0.633,8.051-1.898s2.742-3.117,2.742-5.555c0-4.5-3.926-6.75-11.777-6.75c-4.148,0-7.523,0.234-10.125,0.703
		l1.16-6.68c2.391-0.469,5.414-0.703,9.07-0.703c6.351,0,11.162,1.008,14.432,3.023c3.27,2.016,4.904,4.98,4.904,8.895
		c0,3.891-1.482,6.833-4.447,8.824c-2.965,1.992-7.318,2.988-13.061,2.988L344.321,258.409L344.321,258.409z M345.129,260.764
		l0.598-3.445h14.801l-0.598,3.445H345.129z"/>
	<path fill="#2EBD59" stroke="#2EBD59" stroke-width="2" stroke-miterlimit="10" d="M388.688,286.042
		c-3.188,0-5.648-0.914-7.383-2.742s-2.602-4.406-2.602-7.734c0-4.219,0.896-8.045,2.689-11.479
		c1.793-3.433,4.307-6.369,7.541-8.807c3.234-2.438,7.019-4.312,11.355-5.625s9.047-1.969,14.133-1.969h0.703l-4.641,26.473
		c-0.329,1.875-0.182,3.234,0.439,4.078s1.963,1.266,4.025,1.266h1.441l-1.055,6.152h-2.496c-1.805,0-3.311-0.182-4.518-0.545
		c-1.208-0.363-2.145-0.937-2.813-1.723c-0.668-0.785-1.096-1.822-1.283-3.111c-0.188-1.289-0.164-2.859,0.07-4.711l2.039,0.914
		h-4.078l1.863-2.039c-1.289,3.68-3.282,6.534-5.977,8.561C395.45,285.028,392.297,286.042,388.688,286.042z M390.973,279.362
		c3.375,0,6.316-1.523,8.824-4.57c2.508-3.046,4.266-7.359,5.273-12.938l1.828-10.195l2.848,2.707
		c-3.282,0.141-6.346,0.75-9.193,1.828c-2.848,1.078-5.344,2.526-7.488,4.342c-2.145,1.816-3.82,3.926-5.027,6.328
		c-1.208,2.403-1.811,5.01-1.811,7.822c0,1.5,0.416,2.654,1.248,3.463C388.306,278.958,389.473,279.362,390.973,279.362z"/>
	<path fill="#2EBD59" stroke="#2EBD59" stroke-width="2" stroke-miterlimit="10" d="M421.313,285.303l6.574-37.266h6.223
		l-0.246,8.895l-4.992,28.371H421.313z M444.094,285.303l4.324-24.785c0.375-2.156,0.216-3.779-0.475-4.869
		c-0.691-1.09-1.928-1.635-3.709-1.635c-1.898,0-3.656,0.551-5.273,1.652c-1.617,1.102-3.076,2.936-4.377,5.502
		s-2.408,6.042-3.322,10.424l1.758-15.082h1.547c0.75-2.93,2.238-5.191,4.465-6.785c2.227-1.594,4.898-2.391,8.016-2.391
		c3.773,0,6.404,1.131,7.893,3.393c1.488,2.262,1.833,5.62,1.037,10.072l-4.324,24.504H444.094z"/>
	<path fill="#2EBD59" stroke="#2EBD59" stroke-width="2" stroke-miterlimit="10" d="M462.797,302.178l-0.352-6.539l7.383-0.457
		c2.93-0.188,5.419-0.75,7.471-1.688c2.051-0.938,3.732-2.145,5.045-3.621c1.313-1.477,2.338-3.117,3.076-4.922
		s1.26-3.668,1.564-5.59l4.676-26.508l8.191-5.168h0.281l-5.414,30.551c-0.586,3.305-1.436,6.352-2.549,9.141
		s-2.631,5.238-4.553,7.348c-1.922,2.109-4.389,3.785-7.4,5.027c-3.012,1.242-6.709,1.957-11.092,2.145L462.797,302.178z
		 M494.614,254.366c-3.282,0.141-6.34,0.75-9.176,1.828s-5.314,2.526-7.436,4.342s-3.779,3.926-4.975,6.328
		c-1.195,2.403-1.793,5.01-1.793,7.822c0,1.5,0.427,2.654,1.283,3.463c0.855,0.809,2.068,1.213,3.639,1.213
		c2.32,0,4.406-0.673,6.258-2.021c1.851-1.348,3.428-3.328,4.729-5.941s2.279-5.795,2.936-9.545l0.246-1.406l3.621,2.953
		l-4.078,13.781h-4.078l1.688-1.688c-1.055,3.352-2.766,5.947-5.133,7.787c-2.368,1.84-5.191,2.76-8.473,2.76
		c-3.234,0-5.736-0.914-7.506-2.742c-1.77-1.828-2.654-4.406-2.654-7.734c0-4.219,0.896-8.045,2.689-11.479
		c1.793-3.433,4.307-6.369,7.541-8.807c3.234-2.438,7.025-4.312,11.373-5.625c4.347-1.313,9.064-1.969,14.15-1.969h0.633
		L494.614,254.366z"/>
	<path fill="#2EBD59" stroke="#2EBD59" stroke-width="2" stroke-miterlimit="10" d="M527.414,286.007
		c-3.891,0-6.756-0.896-8.596-2.689s-2.76-4.576-2.76-8.35c0-0.844,0.082-1.781,0.246-2.813c0.164-1.031,0.422-2.215,0.773-3.551
		l5.449-21.27c0.82-3.187,0.908-5.467,0.264-6.838c-0.645-1.371-2.537-2.057-5.678-2.057c-0.797,0-1.612,0.065-2.443,0.193
		c-0.832,0.129-1.658,0.369-2.479,0.721l-1.09-6.398c1.172-0.328,2.355-0.592,3.551-0.791c1.195-0.199,2.391-0.299,3.586-0.299
		c5.437,0,9.123,1.301,11.057,3.902s2.197,6.598,0.791,11.988l-5.449,20.848c-0.375,1.383-0.645,2.566-0.809,3.551
		c-0.164,0.984-0.246,1.816-0.246,2.496c0,3.117,1.734,4.676,5.203,4.676c1.429,0,2.684-0.176,3.762-0.527
		c1.078-0.352,2.367-0.937,3.867-1.758l2.426,5.66c-1.641,0.938-3.37,1.723-5.186,2.355
		C531.838,285.69,529.758,286.007,527.414,286.007z"/>
	<path fill="#2EBD59" stroke="#2EBD59" stroke-width="2" stroke-miterlimit="10" d="M557.438,286.042
		c-3.188,0-5.648-0.914-7.383-2.742s-2.602-4.406-2.602-7.734c0-4.219,0.896-8.045,2.689-11.479
		c1.793-3.433,4.307-6.369,7.541-8.807c3.234-2.438,7.019-4.312,11.355-5.625s9.047-1.969,14.133-1.969h0.703l-4.641,26.473
		c-0.329,1.875-0.182,3.234,0.439,4.078c0.621,0.844,1.963,1.266,4.025,1.266h1.441l-1.055,6.152h-2.496
		c-1.805,0-3.311-0.182-4.518-0.545c-1.208-0.363-2.145-0.937-2.813-1.723c-0.668-0.785-1.096-1.822-1.283-3.111
		c-0.188-1.289-0.164-2.859,0.07-4.711l2.039,0.914h-4.078l1.863-2.039c-1.289,3.68-3.282,6.534-5.977,8.561
		C564.2,285.028,561.047,286.042,557.438,286.042z M559.723,279.362c3.375,0,6.316-1.523,8.824-4.57
		c2.508-3.046,4.266-7.359,5.273-12.938l1.828-10.195l2.848,2.707c-3.282,0.141-6.346,0.75-9.193,1.828
		c-2.848,1.078-5.344,2.526-7.488,4.342c-2.145,1.816-3.82,3.926-5.027,6.328c-1.208,2.403-1.811,5.01-1.811,7.822
		c0,1.5,0.416,2.654,1.248,3.463C557.056,278.958,558.223,279.362,559.723,279.362z"/>
	<path fill="#2EBD59" stroke="#2EBD59" stroke-width="2" stroke-miterlimit="10" d="M599.802,286.042
		c-3.234,0-5.736-0.914-7.506-2.742s-2.654-4.406-2.654-7.734c0-4.289,0.896-8.168,2.689-11.637
		c1.793-3.468,4.307-6.439,7.541-8.912s7.02-4.371,11.355-5.695c4.336-1.324,9.047-1.986,14.133-1.986h0.633l-5.309,6.68
		c-4.383,0.188-8.355,1.208-11.918,3.059c-3.563,1.852-6.387,4.295-8.473,7.33c-2.086,3.036-3.129,6.463-3.129,10.283
		c0,1.5,0.428,2.654,1.283,3.463s2.068,1.213,3.639,1.213c3.281,0,6.146-1.523,8.596-4.57c2.449-3.046,4.225-7.359,5.326-12.938
		l-0.422,14.59h-4.078l3.516-2.004c-1.172,3.493-3.088,6.299-5.748,8.42C606.616,284.982,603.458,286.042,599.802,286.042z
		 M623.602,285.655c-1.711,0-3.158-0.211-4.342-0.633s-2.115-1.06-2.795-1.916c-0.68-0.855-1.113-1.945-1.301-3.27
		c-0.188-1.324-0.152-2.888,0.105-4.693l0.422-11.602l3.656-20.32c0.328-1.805,0.234-3.117-0.281-3.938
		c-0.516-0.82-1.488-1.23-2.918-1.23c-0.586,0-1.166,0.03-1.74,0.088c-0.574,0.059-1.154,0.158-1.74,0.299l-0.809-6.047
		c0.891-0.211,1.781-0.357,2.672-0.439s1.781-0.123,2.672-0.123c4.078,0,6.873,0.984,8.385,2.953s1.881,5.133,1.107,9.492
		l-5.273,29.848c-0.211,1.195-0.217,2.192-0.018,2.988c0.199,0.797,0.615,1.395,1.248,1.793c0.633,0.399,1.488,0.598,2.566,0.598
		h2.145l-1.09,6.152L623.602,285.655L623.602,285.655z"/>
	<path fill="#2EBD59" stroke="#2EBD59" stroke-width="2" stroke-miterlimit="10" d="M650.251,279.327
		c1.875,0,3.879-0.293,6.012-0.879c2.133-0.585,4.184-1.406,6.152-2.461l2.426,6.012c-2.297,1.266-4.758,2.25-7.383,2.953
		s-5.133,1.055-7.523,1.055c-4.828,0-8.596-1.266-11.303-3.797s-4.061-6.059-4.061-10.582c0-4.875,0.92-9.128,2.76-12.762
		c1.84-3.633,4.412-6.463,7.717-8.49c3.305-2.027,7.16-3.041,11.566-3.041c3.469,0,6.17,0.867,8.104,2.602s2.9,4.148,2.9,7.242
		c0,4.594-2.35,8.215-7.049,10.863c-4.699,2.649-11.256,4.055-19.67,4.219l-0.738-5.625c6.281-0.093,11.174-0.926,14.678-2.496
		c3.504-1.57,5.256-3.738,5.256-6.504c0-1.125-0.387-2.009-1.16-2.654c-0.773-0.645-1.875-0.967-3.305-0.967
		c-2.789,0-5.244,0.715-7.365,2.145s-3.773,3.434-4.957,6.012c-1.184,2.579-1.787,5.59-1.811,9.035
		c0.023,2.555,0.809,4.547,2.355,5.977C645.399,278.612,647.532,279.327,650.251,279.327z"/>
	<path fill="#2EBD59" stroke="#2EBD59" stroke-width="2" stroke-miterlimit="10" d="M689.063,286.007
		c-3.047,0-5.848-0.188-8.402-0.563s-4.641-0.891-6.258-1.547l2.039-6.75c2.719,0.68,5.279,1.213,7.682,1.6s4.447,0.58,6.135,0.58
		c3.07,0,5.455-0.404,7.154-1.213s2.549-1.951,2.549-3.428c0-0.726-0.287-1.4-0.861-2.021c-0.574-0.621-1.4-1.107-2.479-1.459
		l-10.547-3.551c-2.32-0.773-4.102-1.863-5.344-3.27s-1.863-2.988-1.863-4.746c0-3.914,1.658-6.943,4.975-9.088
		s8.01-3.217,14.08-3.217c2.133,0,4.318,0.094,6.557,0.281c2.238,0.188,4.342,0.445,6.311,0.773l-1.898,6.469
		c-2.203-0.258-4.354-0.462-6.451-0.615c-2.098-0.152-3.955-0.229-5.572-0.229c-3.328,0-5.9,0.428-7.717,1.283
		c-1.816,0.856-2.725,2.069-2.725,3.639c0,0.563,0.223,1.072,0.668,1.529s1.102,0.814,1.969,1.072l10.723,3.41
		c2.484,0.797,4.389,1.975,5.713,3.533c1.324,1.559,1.986,3.346,1.986,5.361c0,3.867-1.605,6.861-4.816,8.982
		C699.458,284.946,694.923,286.007,689.063,286.007z"/>
	<path fill="#2EBD59" stroke="#2EBD59" stroke-width="2" stroke-miterlimit="10" d="M716.415,285.303l7.383-41.73
		c0.328-1.805,0.234-3.117-0.281-3.938c-0.516-0.82-1.488-1.23-2.918-1.23c-0.586,0-1.166,0.03-1.74,0.088
		c-0.574,0.059-1.154,0.158-1.74,0.299l-0.738-6.398c0.891-0.211,1.781-0.357,2.672-0.439s1.781-0.123,2.672-0.123
		c4.078,0,6.873,0.984,8.385,2.953s1.881,5.133,1.107,9.492l-7.242,41.027h-7.56V285.303z M739.407,285.303l4.324-24.785
		c0.375-2.156,0.217-3.779-0.475-4.869s-1.928-1.635-3.709-1.635c-1.922,0-3.703,0.551-5.344,1.652
		c-1.641,1.102-3.111,2.936-4.412,5.502s-2.42,6.042-3.357,10.424l1.758-15.082h1.547c0.75-2.93,2.256-5.191,4.518-6.785
		c2.262-1.594,4.963-2.391,8.104-2.391c3.773,0,6.404,1.131,7.893,3.393c1.488,2.262,1.834,5.62,1.037,10.072l-4.324,24.504H739.407
		z"/>
</g>
</svg>
