<?xml version="1.0" encoding="utf-8"?>
<!-- Generator: Adobe Illustrator 17.0.0, SVG Export Plug-In . SVG Version: 6.00 Build 0)  -->
<!DOCTYPE svg PUBLIC "-//W3C//DTD SVG 1.1//EN" "http://www.w3.org/Graphics/SVG/1.1/DTD/svg11.dtd">
<svg version="1.1" id="Layer_1" xmlns="http://www.w3.org/2000/svg" xmlns:xlink="http://www.w3.org/1999/xlink" x="0px" y="0px"
	 width="1200px" height="800px" viewBox="0 0 1200 800" enable-background="new 0 0 1200 800" xml:space="preserve">
<g id="g1107">
	<path id="rect9805" fill="#DBA627" d="M704.871,151c-7.835,51.503-52.179,91.01-105.871,91.01
		c-53.691,0-98.034-39.504-105.871-91.006v144.125c27.095-27.095,64.526-43.854,105.871-43.854
		c41.345,0,78.776,16.759,105.871,43.854V151z M704.871,295.129c27.095,27.095,43.854,64.526,43.854,105.871
		s-16.759,78.776-43.854,105.871H849c-51.503-7.835-91.01-52.179-91.01-105.871c0-53.691,39.504-98.034,91.006-105.871H704.871z
		 M704.871,506.871c-27.095,27.095-64.526,43.854-105.871,43.854s-78.776-16.759-105.871-43.854V651
		c8.17-51.113,52.456-90.172,105.871-90.172c53.415,0,97.701,39.059,105.871,90.172V506.871z M493.129,506.871
		c-27.095-27.095-43.853-64.526-43.853-105.871s16.759-78.776,43.853-105.871H349c51.113,8.17,90.172,52.456,90.172,105.871
		S400.113,498.701,349,506.871H493.129z"/>
	<g id="g18126" transform="matrix(0.6693668,0,0,0.6693668,-12.084422,-8.6497923)">
		<g id="g18114">
			<path id="path17666" fill="#DBA627" d="M804.315,524.668c0-17.614,14.279-31.893,31.893-31.893s31.893,14.279,31.893,31.893
				c0,17.614-14.279,31.893-31.893,31.893S804.315,542.282,804.315,524.668z"/>
			<path id="path17912" fill="#DBA627" d="M957.757,524.668c0-17.614,14.279-31.893,31.893-31.893s31.893,14.279,31.893,31.893
				c0,17.614-14.279,31.893-31.893,31.893S957.757,542.282,957.757,524.668z"/>
		</g>
		<g id="g18118">
			<path id="path17918" fill="#DBA627" d="M804.315,699.323c0-17.614,14.279-31.893,31.893-31.893S868.1,681.71,868.1,699.323
				c0,17.614-14.279,31.893-31.893,31.893S804.315,716.937,804.315,699.323z"/>
			<path id="path17920" fill="#DBA627" d="M957.757,699.323c0-17.614,14.279-31.893,31.893-31.893s31.893,14.279,31.893,31.893
				c0,17.614-14.279,31.893-31.893,31.893S957.757,716.937,957.757,699.323z"/>
		</g>
	</g>
	<path id="path13006" fill="#DBA627" d="M599,279.521l-23.027,101.285L477.522,401l98.451,20.193L599,522.478l23.027-101.285
		L720.479,401l-98.451-20.193L599,279.521z M599,310.758l17.105,75.24L689.242,401l-73.137,15.002L599,491.242l-17.105-75.24
		L508.758,401l73.137-15.002L599,310.758z"/>
</g>
</svg>
